<?xml version="1.0" encoding="UTF-8" standalone="no"?>
<!-- Created with Inkscape (http://www.inkscape.org/) -->

<svg
   width="15mm"
   height="12mm"
   viewBox="0 0 15 12"
   version="1.1"
   id="svg5994"
   inkscape:version="1.2.1 (9c6d41e, 2022-07-14)"
   sodipodi:docname="CAD.svg"
   xmlns:inkscape="http://www.inkscape.org/namespaces/inkscape"
   xmlns:sodipodi="http://sodipodi.sourceforge.net/DTD/sodipodi-0.dtd"
   xmlns="http://www.w3.org/2000/svg"
   xmlns:svg="http://www.w3.org/2000/svg">
  <sodipodi:namedview
     id="namedview5996"
     pagecolor="#ffffff"
     bordercolor="#000000"
     borderopacity="0.25"
     inkscape:showpageshadow="2"
     inkscape:pageopacity="0.0"
     inkscape:pagecheckerboard="0"
     inkscape:deskcolor="#d1d1d1"
     inkscape:document-units="mm"
     showgrid="false"
     inkscape:zoom="2.5134901"
     inkscape:cx="-12.532375"
     inkscape:cy="39.387464"
     inkscape:window-width="1463"
     inkscape:window-height="456"
     inkscape:window-x="47"
     inkscape:window-y="38"
     inkscape:window-maximized="0"
     inkscape:current-layer="layer1" />
  <defs
     id="defs5991" />
  <g
     inkscape:label="Calque 1"
     inkscape:groupmode="layer"
     id="layer1">
    <g
       id="g5989"
       transform="translate(-45.494878,-265.4305)">
      <g
         id="g1492"
         transform="matrix(0.13685347,0,0,0.13685347,46.167061,264.65023)"
         style="fill:#808080">
        <path
           inkscape:connector-curvature="0"
           d="m 44.846,19.268 c 0.384,0 0.768,-0.146 1.061,-0.439 l 2.439,-2.439 v 13.879 c 0,0.829 0.671,1.5 1.5,1.5 0.829,0 1.5,-0.671 1.5,-1.5 v -13.88 l 2.439,2.439 c 0.293,0.293 0.677,0.439 1.061,0.439 0.384,0 0.768,-0.146 1.061,-0.439 0.586,-0.585 0.586,-1.536 0,-2.121 l -4.998,-4.998 c -0.14,-0.14 -0.307,-0.251 -0.493,-0.328 -0.007,-0.003 -0.015,-0.004 -0.022,-0.007 -0.17,-0.067 -0.354,-0.106 -0.548,-0.106 -0.194,0 -0.378,0.04 -0.548,0.106 -0.007,0.003 -0.015,0.004 -0.022,0.007 -0.186,0.077 -0.353,0.188 -0.493,0.328 l -4.998,4.998 c -0.586,0.585 -0.586,1.536 0,2.121 0.293,0.294 0.677,0.44 1.061,0.44 z"
           id="path1484"
           style="fill:#808080" />
        <path
           inkscape:connector-curvature="0"
           d="M 21.648,76.439 9.938,82.593 10.85,79.006 C 11.054,78.202 10.569,77.386 9.766,77.182 8.961,76.98 8.147,77.463 7.943,78.266 l -1.742,6.852 c -0.008,0.031 -0.008,0.062 -0.014,0.095 -0.01,0.053 -0.02,0.105 -0.024,0.16 -0.004,0.048 -0.003,0.095 -0.002,0.143 0,0.049 0.002,0.098 0.007,0.147 0.006,0.05 0.017,0.099 0.027,0.147 0.01,0.046 0.02,0.092 0.035,0.137 0.017,0.052 0.039,0.101 0.061,0.15 0.013,0.029 0.021,0.06 0.036,0.089 0.005,0.009 0.013,0.016 0.018,0.024 0.008,0.014 0.012,0.03 0.021,0.044 0.055,0.092 0.121,0.176 0.194,0.254 0.019,0.021 0.04,0.036 0.059,0.055 0.069,0.067 0.145,0.127 0.228,0.181 0.028,0.018 0.056,0.036 0.086,0.053 0.068,0.037 0.14,0.067 0.214,0.095 0.026,0.01 0.052,0.021 0.079,0.028 0.015,0.005 0.028,0.012 0.042,0.016 0.006,0.002 0.011,0.005 0.018,0.007 l 6.854,1.744 c 0.125,0.031 0.249,0.046 0.371,0.046 0.67,0 1.28,-0.451 1.453,-1.13 0.205,-0.803 -0.281,-1.619 -1.083,-1.824 l -3.066,-0.78 11.231,-5.902 c 0.733,-0.386 1.016,-1.293 0.63,-2.026 -0.387,-0.735 -1.294,-1.014 -2.028,-0.632 z"
           id="path1486"
           style="fill:#808080" />
        <path
           inkscape:connector-curvature="0"
           d="M 93.845,85.419 C 93.844,85.4 93.838,85.383 93.837,85.365 93.832,85.313 93.823,85.264 93.815,85.214 93.809,85.183 93.808,85.151 93.8,85.118 l -1.742,-6.852 c -0.204,-0.803 -1.021,-1.286 -1.824,-1.084 -0.803,0.204 -1.288,1.021 -1.084,1.824 l 0.921,3.623 -12.038,-6.196 c -0.736,-0.376 -1.641,-0.089 -2.021,0.647 -0.379,0.736 -0.089,1.641 0.647,2.021 l 11.48,5.909 -3.018,0.768 c -0.803,0.205 -1.288,1.021 -1.084,1.824 0.173,0.679 0.783,1.13 1.453,1.13 0.122,0 0.247,-0.015 0.371,-0.046 l 6.854,-1.744 c 0.007,-0.002 0.013,-0.005 0.02,-0.007 0.016,-0.005 0.029,-0.012 0.045,-0.017 0.105,-0.032 0.203,-0.075 0.296,-0.127 0.027,-0.015 0.053,-0.031 0.079,-0.048 0.089,-0.058 0.171,-0.122 0.244,-0.195 0.015,-0.015 0.031,-0.026 0.045,-0.042 0.085,-0.092 0.156,-0.195 0.216,-0.305 0.006,-0.01 0.015,-0.018 0.02,-0.027 0.014,-0.026 0.021,-0.055 0.032,-0.082 0.022,-0.05 0.044,-0.101 0.061,-0.153 0.014,-0.044 0.023,-0.089 0.033,-0.134 0.011,-0.05 0.021,-0.099 0.026,-0.149 0.006,-0.049 0.007,-0.097 0.008,-0.145 10e-4,-0.031 0.006,-0.061 0.005,-0.092 z"
           id="path1488"
           style="fill:#808080" />
        <path
           inkscape:connector-curvature="0"
           d="m 65.846,44.091 -12,-6 v -4.323 h -8 v 4.323 l -12,6 v -0.323 h -8 v 8 h 2.5 v 17 h -2.5 v 8 h 8 v -0.322 l 12,6 v 4.322 h 8 v -4.322 l 12,-6 v 0.322 h 8 v -8 h -2.5 v -17 h 2.5 v -8 h -8 z m -20,-2.646 v 0.323 h 8 v -0.323 l 12,6 v 0.646 l -12,6 v -0.323 h -8 v 0.323 l -12,-6 v -0.646 z m -12,31.645 v -4.322 h -2.5 v -17 h 2.5 v -0.322 l 12,6 v 4.322 h 2.5 v 17 h -2.5 v 0.322 z m 34.5,-4.322 h -2.5 v 4.322 l -12,6 v -0.322 h -2.5 v -17 h 2.5 v -4.322 l 12,-6 v 0.322 h 2.5 z"
           id="path1490"
           style="fill:#808080" />
      </g>
    </g>
  </g>
</svg>
