<?xml version="1.0" encoding="UTF-8" standalone="no"?>
<!-- Created with Inkscape (http://www.inkscape.org/) -->

<svg
   width="15mm"
   height="12mm"
   viewBox="0 0 15 12"
   version="1.1"
   id="svg8377"
   inkscape:version="1.2.1 (9c6d41e, 2022-07-14)"
   sodipodi:docname="CFD.svg"
   xmlns:inkscape="http://www.inkscape.org/namespaces/inkscape"
   xmlns:sodipodi="http://sodipodi.sourceforge.net/DTD/sodipodi-0.dtd"
   xmlns="http://www.w3.org/2000/svg"
   xmlns:svg="http://www.w3.org/2000/svg">
  <sodipodi:namedview
     id="namedview8379"
     pagecolor="#ffffff"
     bordercolor="#000000"
     borderopacity="0.25"
     inkscape:showpageshadow="2"
     inkscape:pageopacity="0.0"
     inkscape:pagecheckerboard="0"
     inkscape:deskcolor="#d1d1d1"
     inkscape:document-units="mm"
     showgrid="false"
     inkscape:zoom="1.5260092"
     inkscape:cx="-137.28619"
     inkscape:cy="-4.5871282"
     inkscape:window-width="1463"
     inkscape:window-height="456"
     inkscape:window-x="47"
     inkscape:window-y="38"
     inkscape:window-maximized="0"
     inkscape:current-layer="layer1" />
  <defs
     id="defs8374" />
  <g
     inkscape:label="Calque 1"
     inkscape:groupmode="layer"
     id="layer1">
    <g
       transform="matrix(0.23989445,0,0,0.23989445,-4.3655321,-5.92627)"
       style="fill:#53676c"
       id="g8">
      <path
         inkscape:connector-curvature="0"
         style="fill:#53676c"
         id="path2"
         d="m 63.179,40.505 7.662,-1.389 -1.389,-7.663 -2.164,0.393 0.635,3.502 c -2.581,-1.804 -5.617,-2.716 -8.659,-2.716 -3.669,0 -7.346,1.323 -10.247,4.003 -2.523,2.33 -5.811,3.536 -9.272,3.4 -3.457,-0.138 -6.644,-1.602 -8.974,-4.124 l -1.615,1.492 c 2.728,2.955 6.457,4.67 10.502,4.83 4.051,0.161 7.899,-1.254 10.852,-3.982 4.697,-4.34 11.77,-4.506 16.665,-0.708 l -4.387,0.795 z" />
      <path
         inkscape:connector-curvature="0"
         style="fill:#53676c"
         id="path4"
         d="m 63.179,53.656 7.662,-1.389 -1.389,-7.663 -2.164,0.393 0.635,3.502 c -2.581,-1.804 -5.617,-2.716 -8.659,-2.716 -3.669,0 -7.346,1.323 -10.247,4.003 -2.523,2.331 -5.811,3.531 -9.272,3.4 -3.457,-0.138 -6.644,-1.602 -8.974,-4.124 l -1.615,1.492 c 2.728,2.955 6.457,4.67 10.502,4.83 4.051,0.157 7.899,-1.253 10.852,-3.982 4.697,-4.34 11.77,-4.506 16.665,-0.708 l -4.387,0.795 z" />
      <path
         inkscape:connector-curvature="0"
         style="fill:#53676c"
         id="path6"
         d="m 63.179,66.807 7.662,-1.389 -1.389,-7.663 -2.164,0.393 0.635,3.502 c -2.581,-1.804 -5.617,-2.716 -8.659,-2.716 -3.669,0 -7.346,1.323 -10.247,4.003 -2.523,2.33 -5.811,3.535 -9.272,3.4 -3.457,-0.138 -6.644,-1.602 -8.974,-4.124 l -1.615,1.492 c 2.728,2.955 6.457,4.67 10.502,4.83 4.051,0.154 7.899,-1.253 10.852,-3.982 4.697,-4.339 11.77,-4.506 16.665,-0.708 l -4.387,0.795 z" />
    </g>
  </g>
</svg>
