<?xml version="1.0" encoding="UTF-8" standalone="no"?>
<svg
   xmlns:dc="http://purl.org/dc/elements/1.1/"
   xmlns:cc="http://creativecommons.org/ns#"
   xmlns:rdf="http://www.w3.org/1999/02/22-rdf-syntax-ns#"
   xmlns:svg="http://www.w3.org/2000/svg"
   xmlns="http://www.w3.org/2000/svg"
   xmlns:sodipodi="http://sodipodi.sourceforge.net/DTD/sodipodi-0.dtd"
   xmlns:inkscape="http://www.inkscape.org/namespaces/inkscape"
   viewBox="0 0 100 100"
   x="0px"
   y="0px"
   version="1.1"
   id="svg22"
   sodipodi:docname="noun_Data Analyst_3466690.svg"
   width="100"
   height="100"
   inkscape:version="0.92.2 5c3e80d, 2017-08-06">
  <metadata
     id="metadata28">
    <rdf:RDF>
      <cc:Work
         rdf:about="">
        <dc:format>image/svg+xml</dc:format>
        <dc:type
           rdf:resource="http://purl.org/dc/dcmitype/StillImage" />
        <dc:title>_</dc:title>
      </cc:Work>
    </rdf:RDF>
  </metadata>
  <defs
     id="defs26" />
  <sodipodi:namedview
     pagecolor="#ffffff"
     bordercolor="#666666"
     borderopacity="1"
     objecttolerance="10"
     gridtolerance="10"
     guidetolerance="10"
     inkscape:pageopacity="0"
     inkscape:pageshadow="2"
     inkscape:window-width="717"
     inkscape:window-height="480"
     id="namedview24"
     showgrid="false"
     inkscape:zoom="1.888"
     inkscape:cx="50"
     inkscape:cy="62.5"
     inkscape:window-x="0"
     inkscape:window-y="0"
     inkscape:window-maximized="0"
     inkscape:current-layer="svg22" />
  <title
     id="title2">_</title>
  <g
     data-name="Layer 2"
     id="g16"
     transform="translate(-1.5889831,-0.10593242)">
    <path
       d="m 85.77,48.75 -5,-2.77 a 22.1,22.1 0 0 0 -2.55,-6.86 l 1.9,-5.35 A 1.26,1.26 0 0 0 79.85,32.5 l -1.93,-2 a 1.24,1.24 0 0 0 -1.25,-0.35 l -5.39,1.56 A 22.44,22.44 0 0 0 64.46,28.64 L 62,23.55 a 1.25,1.25 0 0 0 -1.09,-0.72 l -2.8,-0.08 A 1.26,1.26 0 0 0 57,23.4 l -3,5.46 a 1.24,1.24 0 0 0 0.49,1.7 1.26,1.26 0 0 0 1.7,-0.49 l 2.64,-4.8 h 1.23 l 2.37,4.9 a 1.28,1.28 0 0 0 0.85,0.69 19.52,19.52 0 0 1 7,3.16 1.25,1.25 0 0 0 1.08,0.18 l 5.22,-1.51 0.87,0.92 -1.83,5.18 a 1.22,1.22 0 0 0 0.11,1.07 19.62,19.62 0 0 1 2.64,7.14 1.27,1.27 0 0 0 0.63,0.89 l 4.89,2.69 v 1.24 L 78.7,54.3 a 1.27,1.27 0 0 0 -0.68,0.82 19.54,19.54 0 0 1 -3.02,6.64 1.28,1.28 0 0 0 -0.18,1.09 l 1.66,5.51 -0.91,0.86 L 70,67.2 a 1.26,1.26 0 0 0 -1.07,0.1 19.52,19.52 0 0 1 -6.65,2.48 1.26,1.26 0 0 0 -0.88,0.64 l -2.82,5.24 h -1.22 l -2.55,-5.43 a 1.25,1.25 0 0 0 -2.27,1 l 2.85,6.13 a 1.25,1.25 0 0 0 1.09,0.73 l 2.8,0.08 v 0 a 1.24,1.24 0 0 0 1.1,-0.66 l 2.9,-5.4 a 22,22 0 0 0 6.37,-2.37 l 5.69,2.09 a 1.25,1.25 0 0 0 1.29,-0.27 l 2,-1.92 a 1.25,1.25 0 0 0 0.34,-1.27 L 77.34,62.7 a 22.28,22.28 0 0 0 3,-6.39 l 5.32,-2.53 a 1.27,1.27 0 0 0 0.71,-1.1 l 0.09,-2.8 a 1.27,1.27 0 0 0 -0.69,-1.13 z"
       id="path4"
       inkscape:connector-curvature="0" />
    <path
       d="m 63.88,57 a 8.27,8.27 0 0 1 -7.09,1.52 1.2526971,1.2526971 0 1 0 -0.61,2.43 10.74,10.74 0 0 0 9.23,-2 10.81,10.81 0 0 0 -9,-19.08 A 1.2503,1.2503 0 1 0 57,42.3 8.29,8.29 0 0 1 63.88,57 Z"
       id="path6"
       inkscape:connector-curvature="0" />
    <path
       d="M 50.36,62.51 H 38 a 1.25,1.25 0 0 0 -1.25,1.25 V 68 a 4.4,4.4 0 1 0 2.5,0 v -3 h 11.11 a 1.25,1.25 0 0 0 0,-2.5 z m -10.42,9.64 a 1.9,1.9 0 1 1 -1.9,-1.9 1.9,1.9 0 0 1 1.9,1.9 z"
       id="path8"
       inkscape:connector-curvature="0" />
    <path
       d="M 50.36,44.89 H 30.15 v -6.07 a 4.39,4.39 0 1 0 -2.5,0.16 v 7.16 a 1.25,1.25 0 0 0 1.25,1.25 h 21.46 a 1.25,1.25 0 0 0 0,-2.5 z M 26.74,34.7 a 1.9,1.9 0 1 1 1.9,1.9 1.9,1.9 0 0 1 -1.9,-1.9 z"
       id="path10"
       inkscape:connector-curvature="0" />
    <path
       d="M 50.36,35.75 H 41.9 v -4.42 a 4.39,4.39 0 1 0 -2.5,0.16 V 37 a 1.25,1.25 0 0 0 1.25,1.25 h 9.71 a 1.25,1.25 0 0 0 0,-2.5 z M 38.49,27.22 a 1.9,1.9 0 1 1 1.9,1.89 1.9,1.9 0 0 1 -1.9,-1.89 z"
       id="path12"
       inkscape:connector-curvature="0" />
    <path
       d="m 50.09,56 a 1.25,1.25 0 0 0 0,-2.5 H 22.18 a 4.4,4.4 0 1 0 0,2.5 z M 18,56.67 a 1.9,1.9 0 1 1 1.9,-1.9 1.91,1.91 0 0 1 -1.9,1.9 z"
       id="path14"
       inkscape:connector-curvature="0" />
  </g>
</svg>
