<?xml version="1.0" encoding="UTF-8" standalone="no"?>
<svg
   xmlns:dc="http://purl.org/dc/elements/1.1/"
   xmlns:cc="http://creativecommons.org/ns#"
   xmlns:rdf="http://www.w3.org/1999/02/22-rdf-syntax-ns#"
   xmlns:svg="http://www.w3.org/2000/svg"
   xmlns="http://www.w3.org/2000/svg"
   xmlns:sodipodi="http://sodipodi.sourceforge.net/DTD/sodipodi-0.dtd"
   xmlns:inkscape="http://www.inkscape.org/namespaces/inkscape"
   version="1.0"
   x="0px"
   y="0px"
   viewBox="0 0 100 100"
   enable-background="new 0 0 100 100"
   xml:space="preserve"
   id="svg32"
   sodipodi:docname="noun_methodology_338998.svg"
   width="100"
   height="100"
   inkscape:version="0.92.2 5c3e80d, 2017-08-06"><metadata
     id="metadata38"><rdf:RDF><cc:Work
         rdf:about=""><dc:format>image/svg+xml</dc:format><dc:type
           rdf:resource="http://purl.org/dc/dcmitype/StillImage" /><dc:title></dc:title></cc:Work></rdf:RDF></metadata><defs
     id="defs36" /><sodipodi:namedview
     pagecolor="#ffffff"
     bordercolor="#666666"
     borderopacity="1"
     objecttolerance="10"
     gridtolerance="10"
     guidetolerance="10"
     inkscape:pageopacity="0"
     inkscape:pageshadow="2"
     inkscape:window-width="717"
     inkscape:window-height="480"
     id="namedview34"
     showgrid="false"
     inkscape:zoom="1.888"
     inkscape:cx="50"
     inkscape:cy="62.5"
     inkscape:window-x="0"
     inkscape:window-y="0"
     inkscape:window-maximized="0"
     inkscape:current-layer="svg32" /><g
     id="g26"
     transform="translate(0,-2.7542373)"><g
       id="g24"><path
         d="m 27.4604,62.243198 c -4.687001,0 -8.5,3.813 -8.5,8.500004 0,4.686997 3.812999,8.5 8.5,8.5 4.687099,0 8.5,-3.813003 8.5,-8.5 0,-4.687004 -3.812901,-8.500004 -8.5,-8.500004 z m 0,15.000004 c -3.583901,0 -6.5,-2.916099 -6.5,-6.5 0,-3.583999 2.916099,-6.5 6.5,-6.5 3.583999,0 6.5,2.916001 6.5,6.5 0,3.583901 -2.916001,6.5 -6.5,6.5 z"
         id="path2"
         inkscape:connector-curvature="0" /><path
         d="M 56.935501,62.6665 H 43.064499 c -0.5523,0 -1,0.4478 -1,1 v 13.871098 c 0,0.5522 0.4477,1 1,1 h 13.871002 c 0.5523,0 1,-0.4478 1,-1 V 63.6665 c 0,-0.5522 -0.4477,-1 -1,-1 z m -1,13.871098 H 44.064499 V 64.666496 h 11.871002 z"
         id="path4"
         inkscape:connector-curvature="0" /><path
         d="M 81.356003,76.285202 73.4058,62.515098 c -0.357498,-0.619098 -1.375,-0.619098 -1.732498,0 l -7.950203,13.770104 c -0.1782,0.309502 -0.1782,0.690399 0,1 0.178802,0.309502 0.508804,0.5 0.866302,0.5 H 80.4897 c 0.357499,0 0.6875,-0.190498 0.866303,-0.5 0.1782,-0.309601 0.1782,-0.690498 0,-1 z m -15.034706,-0.5 6.2183,-10.770104 6.2182,10.770104 z"
         id="path6"
         inkscape:connector-curvature="0" /><path
         d="m 71.764603,58.432098 c 0.0102,0.0124 0.0262,0.0171 0.0369,0.029 0.0654,0.073 0.144402,0.1278 0.2286,0.178997 0.035,0.0212 0.063,0.0508 0.100304,0.0676 0.125496,0.0568 0.262397,0.0921 0.409195,0.0921 0.146904,0 0.283905,-0.0355 0.409606,-0.0923 0.0366,-0.0166 0.064,-0.0457 0.0985,-0.0665 0.0847,-0.0515 0.1641,-0.106499 0.229904,-0.18 0.0106,-0.0118 0.0267,-0.0165 0.0369,-0.0289 l 3.917404,-4.799797 c 0.349197,-0.4277 0.285194,-1.057602 -0.142502,-1.4072 -0.427299,-0.348602 -1.057701,-0.285602 -1.407303,0.142598 L 73.539597,54.993 V 50.25 c 0,-0.5522 -0.4478,-1 -1,-1 -0.5523,0 -1,0.4478 -1,1 v 4.743198 L 69.3965,52.367699 c -0.349602,-0.4282 -0.9805,-0.4917 -1.407196,-0.142598 -0.427803,0.349598 -0.491707,0.9795 -0.142601,1.4072 z"
         id="path8"
         inkscape:connector-curvature="0" /><path
         d="m 26.685499,58.432098 c 0.0102,0.0124 0.0263,0.0171 0.0369,0.0289 0.0658,0.0735 0.145198,0.128501 0.229898,0.18 0.0345,0.0208 0.0619,0.0499 0.0985,0.0665 0.1257,0.0568 0.262699,0.0923 0.4096,0.0923 0.146801,0 0.283701,-0.0353 0.4092,-0.0921 0.0373,-0.0168 0.0653,-0.0464 0.1003,-0.0676 0.0842,-0.0512 0.163201,-0.105999 0.2286,-0.178997 0.0107,-0.0119 0.0267,-0.0166 0.0369,-0.029 l 3.917902,-4.799797 c 0.349099,-0.4277 0.285199,-1.057602 -0.142601,-1.4072 -0.4272,-0.348602 -1.058099,-0.285602 -1.4072,0.142598 l -2.1431,2.625499 V 50.25 c 0,-0.5522 -0.447701,-1 -1,-1 -0.552201,0 -1,0.4478 -1,1 v 4.743 l -2.1425,-2.625301 c -0.3487,-0.4268 -0.978501,-0.4912 -1.407299,-0.142598 -0.4277,0.349598 -0.491701,0.9795 -0.1425,1.4072 z"
         id="path10"
         inkscape:connector-curvature="0" /><path
         d="M 36.410599,34.1665 H 49 v 7.108398 h -3.5 c -0.5522,0 -1,0.4478 -1,1 0,0.552201 0.4478,1 1,1 H 49 v 2.774903 c 0,0.552299 0.4478,1 1,1 0.5522,0 1,-0.447701 1,-1 v -2.774903 h 3.5 c 0.5522,0 1,-0.447799 1,-1 0,-0.5522 -0.4478,-1 -1,-1 H 51 V 34.1665 h 12.589401 c 0.5522,0 1,-0.4477 1,-1 v -9.908701 c 0,-0.552198 -0.4478,-1 -1,-1 H 36.410599 c -0.552201,0 -1,0.447802 -1,1 V 33.1665 c 0,0.5523 0.447799,1 1,1 z m 1,-9.908701 H 62.589401 V 32.1665 H 37.410599 Z"
         id="path12"
         inkscape:connector-curvature="0" /><path
         d="m 50,49.25 c -0.5522,0 -1,0.4478 -1,1 v 4.743 l -2.142601,-2.625301 c -0.349598,-0.4268 -0.9785,-0.4912 -1.4072,-0.142598 -0.4277,0.349598 -0.491699,0.9795 -0.142601,1.4072 l 3.917503,4.799797 c 0.0101,0.0124 0.0262,0.0171 0.0369,0.029 0.0654,0.073 0.144398,0.1278 0.2285,0.178997 0.035,0.0212 0.063,0.0508 0.1003,0.0676 0.125599,0.0568 0.262497,0.0921 0.409199,0.0921 0.146702,0 0.2836,-0.0353 0.409199,-0.0921 0.0373,-0.0168 0.0653,-0.0464 0.1003,-0.0676 0.0841,-0.0512 0.163101,-0.105998 0.2285,-0.178997 0.0107,-0.0119 0.0268,-0.0166 0.0369,-0.029 l 3.917503,-4.799797 c 0.349098,-0.4277 0.285099,-1.057602 -0.142601,-1.4072 -0.4272,-0.348602 -1.057602,-0.285602 -1.4072,0.142598 L 51,54.993 V 50.25 c 0,-0.5522 -0.4478,-1 -1,-1 z"
         id="path14"
         inkscape:connector-curvature="0" /><path
         d="m 68.875,43.274898 h 2.664597 v 2.774903 c 0,0.552299 0.4477,1 1,1 0.5522,0 1,-0.447701 1,-1 v -3.774903 c 0,-0.5522 -0.4478,-1 -1,-1 H 68.875 c -0.5522,0 -1,0.4478 -1,1 0,0.552201 0.4478,1 1,1 z"
         id="path16"
         inkscape:connector-curvature="0" /><path
         d="m 27.4604,47.049801 c 0.552299,0 1,-0.447701 1,-1 v -2.774902 h 2.6646 c 0.5522,0 1,-0.4478 1,-1 0,-0.552201 -0.4478,-1 -1,-1 h -3.6646 c -0.552201,0 -1,0.447799 -1,1 v 3.774902 c 0,0.552299 0.447799,1 1,1 z"
         id="path18"
         inkscape:connector-curvature="0" /><path
         d="m 40.25,41.274898 h -4.5 c -0.5522,0 -1,0.4478 -1,1 0,0.552201 0.4478,1 1,1 h 4.5 c 0.5522,0 1,-0.447799 1,-1 0,-0.5522 -0.4478,-1 -1,-1 z"
         id="path20"
         inkscape:connector-curvature="0" /><path
         d="m 65.25,42.274898 c 0,-0.5522 -0.4478,-1 -1,-1 h -4.5 c -0.5522,0 -1,0.4478 -1,1 0,0.552201 0.4478,1 1,1 h 4.5 c 0.5522,0 1,-0.447799 1,-1 z"
         id="path22"
         inkscape:connector-curvature="0" /></g></g></svg>