<?xml version="1.0" encoding="UTF-8" standalone="no"?>
<svg
   xmlns:dc="http://purl.org/dc/elements/1.1/"
   xmlns:cc="http://creativecommons.org/ns#"
   xmlns:rdf="http://www.w3.org/1999/02/22-rdf-syntax-ns#"
   xmlns:svg="http://www.w3.org/2000/svg"
   xmlns="http://www.w3.org/2000/svg"
   xmlns:sodipodi="http://sodipodi.sourceforge.net/DTD/sodipodi-0.dtd"
   xmlns:inkscape="http://www.inkscape.org/namespaces/inkscape"
   version="1.1"
   x="0px"
   y="0px"
   viewBox="0 0 100 100"
   enable-background="new 0 0 100 100"
   xml:space="preserve"
   id="svg46"
   sodipodi:docname="noun_process_355072.svg"
   width="100"
   height="100"
   inkscape:version="0.92.2 5c3e80d, 2017-08-06"><metadata
     id="metadata52"><rdf:RDF><cc:Work
         rdf:about=""><dc:format>image/svg+xml</dc:format><dc:type
           rdf:resource="http://purl.org/dc/dcmitype/StillImage" /><dc:title></dc:title></cc:Work></rdf:RDF></metadata><defs
     id="defs50" /><sodipodi:namedview
     pagecolor="#ffffff"
     bordercolor="#666666"
     borderopacity="1"
     objecttolerance="10"
     gridtolerance="10"
     guidetolerance="10"
     inkscape:pageopacity="0"
     inkscape:pageshadow="2"
     inkscape:window-width="907"
     inkscape:window-height="480"
     id="namedview48"
     showgrid="false"
     inkscape:zoom="1.888"
     inkscape:cx="50"
     inkscape:cy="62.5"
     inkscape:window-x="0"
     inkscape:window-y="0"
     inkscape:window-maximized="0"
     inkscape:current-layer="svg46" /><text
     id="text6"
     x="127.1875"
     y="-8.0298004"><tspan
       x="127.1875"
       y="-8.0298004"
       font-size="21"
       id="tspan2"
       style="font-size:21px;font-family:ArialMT;fill:#000000">Created By CBi China Bridge </tspan><tspan
       x="127.1875"
       y="17.1702"
       font-size="21"
       id="tspan4"
       style="font-size:21px;font-family:ArialMT;fill:#000000">from the Noun Project</tspan></text>
<text
     font-size="12"
     id="text8"
     style="font-size:12px;font-family:ArialMT;fill:#000000"
     x="25.9321"
     y="170.7744">Process</text>
<g
     id="g16"
     transform="translate(0,-25)"><circle
       stroke-miterlimit="10"
       cx="55.638"
       cy="148.17101"
       r="5.1300001"
       id="circle14"
       style="fill:#000000;stroke:#221f1f;stroke-width:2;stroke-miterlimit:10" /></g><g
     id="g20"
     transform="translate(0,-25)"><circle
       stroke-miterlimit="10"
       cx="43.852001"
       cy="172.214"
       r="5.1300001"
       id="circle18"
       style="fill:#000000;stroke:#221f1f;stroke-width:2;stroke-miterlimit:10" /></g><g
     id="g28"
     transform="translate(0,-25)"><path
       stroke-miterlimit="10"
       d="m 49.261,148.129 -24.204,-0.164 c -4.677,-0.031 -8.529,3.77 -8.561,8.447 l -0.045,6.645 c -0.031,4.676 3.548,8.523 7.953,8.549 4.406,0.023 8.01,0.045 8.01,0.045"
       id="path26"
       inkscape:connector-curvature="0"
       style="fill:#000000;stroke:#221f1f;stroke-width:2;stroke-linecap:round;stroke-linejoin:round;stroke-miterlimit:10" /></g><polyline
     stroke-miterlimit="10"
     points="  68.325,151.973 64.633,148.23 68.375,144.539 "
     id="polyline30"
     style="fill:#000000;stroke:#221f1f;stroke-width:2;stroke-linecap:round;stroke-linejoin:round;stroke-miterlimit:10"
     transform="translate(0,-25)" /><polyline
     stroke-miterlimit="10"
     points="  30.58,167.92 34.273,171.662 30.531,175.354 "
     id="polyline32"
     style="fill:#000000;stroke:#221f1f;stroke-width:2;stroke-linecap:round;stroke-linejoin:round;stroke-miterlimit:10"
     transform="translate(0,-25)" /><g
     id="g40"
     transform="translate(0,-1.6949153)"><path
       d="m 58.06,43.693 c -3.041,0 -5.576,2.241 -6.048,5.155 -0.103,-0.037 -0.21,-0.066 -0.325,-0.068 L 27.483,48.618 c -2.576,-0.032 -4.921,0.958 -6.731,2.746 -1.812,1.787 -2.819,4.164 -2.836,6.693 l -0.045,6.645 c -0.018,2.588 0.994,5.106 2.774,6.909 1.674,1.693 3.865,2.634 6.173,2.646 l 7.453,0.043 -2.022,1.994 c -0.394,0.389 -0.397,1.021 -0.01,1.414 0.195,0.199 0.454,0.299 0.712,0.299 0.254,0 0.508,-0.096 0.702,-0.289 l 3.742,-3.691 c 0.188,-0.186 0.296,-0.439 0.298,-0.705 0.002,-0.265 -0.102,-0.52 -0.288,-0.709 l -3.693,-3.742 c -0.388,-0.395 -1.022,-0.398 -1.414,-0.01 -0.394,0.388 -0.397,1.021 -0.01,1.414 L 34.286,72.3 26.83,72.257 c -1.773,-0.01 -3.464,-0.738 -4.762,-2.051 -1.41,-1.428 -2.211,-3.43 -2.197,-5.49 l 0.045,-6.645 c 0.014,-1.994 0.809,-3.871 2.24,-5.284 1.433,-1.412 3.359,-2.166 5.313,-2.169 l 24.204,0.162 c 0.002,0 0.005,0 0.007,0 0.113,0 0.218,-0.029 0.319,-0.064 0.432,2.941 2.954,5.217 6.017,5.238 h 0.043 c 3.356,0 6.105,-2.731 6.129,-6.09 0.022,-3.379 -2.709,-6.147 -6.128,-6.171 z m -0.001,10.261 v 1 l -0.029,-1 C 56.926,53.946 55.892,53.511 55.117,52.725 54.343,51.94 53.92,50.9 53.928,49.795 c 0.015,-2.262 1.868,-4.102 4.158,-4.102 2.277,0.016 4.117,1.881 4.103,4.157 -0.017,2.264 -1.87,4.104 -4.13,4.104 z"
       id="path34"
       inkscape:connector-curvature="0"
       style="fill:#000000" /><path
       d="m 46.271,67.735 c -3.358,0 -6.107,2.732 -6.13,6.091 -0.022,3.38 2.709,6.147 6.088,6.171 h 0.041 c 3.358,0 6.108,-2.732 6.132,-6.09 0.023,-3.379 -2.71,-6.148 -6.131,-6.172 z M 46.27,77.997 v 1 l -0.027,-1 c -2.276,-0.016 -4.116,-1.881 -4.102,-4.158 0.015,-2.262 1.867,-4.104 4.157,-4.104 2.278,0.016 4.119,1.881 4.104,4.158 -0.016,2.264 -1.87,4.104 -4.132,4.104 z"
       id="path36"
       inkscape:connector-curvature="0"
       style="fill:#000000" /><path
       d="M 72.69,25.448 39.308,25.174 c -0.463,-2.908 -2.974,-5.15 -6.049,-5.171 -3.356,0 -6.106,2.731 -6.13,6.09 -0.022,3.381 2.709,6.148 6.089,6.171 h 0.043 c 3.016,0 5.535,-2.207 6.034,-5.09 l 33.379,0.274 c 4.139,0.033 7.482,3.428 7.455,7.566 l -0.043,6.452 c -0.014,2.048 -0.62,3.964 -1.708,5.396 -1.016,1.338 -2.324,2.072 -3.688,2.072 -0.009,0 -0.018,0 -0.025,0 l -5.194,-0.033 2.024,-1.997 c 0.394,-0.388 0.397,-1.021 0.01,-1.414 -0.388,-0.394 -1.022,-0.397 -1.414,-0.01 l -3.742,3.69 c -0.188,0.187 -0.296,0.44 -0.298,0.705 -0.002,0.266 0.102,0.521 0.288,0.709 l 3.692,3.742 c 0.195,0.199 0.454,0.299 0.712,0.299 0.254,0 0.508,-0.096 0.702,-0.289 0.394,-0.388 0.397,-1.021 0.01,-1.414 l -1.996,-2.021 5.192,0.033 c 0.014,0 0.026,0 0.04,0 2.002,0 3.876,-1.016 5.279,-2.863 1.348,-1.773 2.099,-4.114 2.115,-6.591 l 0.043,-6.452 c 0.037,-5.24 -4.197,-9.538 -9.438,-9.58 z m -39.428,4.816 v 1 l -0.029,-1 c -2.277,-0.016 -4.117,-1.88 -4.103,-4.157 0.016,-2.263 1.868,-4.104 4.157,-4.104 2.277,0.016 4.118,1.882 4.104,4.159 -0.015,2.262 -1.868,4.102 -4.129,4.102 z"
       id="path38"
       inkscape:connector-curvature="0"
       style="fill:#000000" /></g></svg>