<?xml version="1.0" encoding="UTF-8" standalone="no"?>
<svg
   xmlns:dc="http://purl.org/dc/elements/1.1/"
   xmlns:cc="http://creativecommons.org/ns#"
   xmlns:rdf="http://www.w3.org/1999/02/22-rdf-syntax-ns#"
   xmlns:svg="http://www.w3.org/2000/svg"
   xmlns="http://www.w3.org/2000/svg"
   xmlns:sodipodi="http://sodipodi.sourceforge.net/DTD/sodipodi-0.dtd"
   xmlns:inkscape="http://www.inkscape.org/namespaces/inkscape"
   version="1.1"
   x="0px"
   y="0px"
   viewBox="0 0 100 125"
   style="enable-background:new 0 0 100 100;"
   xml:space="preserve"
   id="svg8"
   sodipodi:docname="icon_detail.svg"
   inkscape:version="0.92.2 5c3e80d, 2017-08-06"><metadata
     id="metadata14"><rdf:RDF><cc:Work
         rdf:about=""><dc:format>image/svg+xml</dc:format><dc:type
           rdf:resource="http://purl.org/dc/dcmitype/StillImage" /><dc:title></dc:title></cc:Work></rdf:RDF></metadata><defs
     id="defs12" /><sodipodi:namedview
     pagecolor="#ffffff"
     bordercolor="#666666"
     borderopacity="1"
     objecttolerance="10"
     gridtolerance="10"
     guidetolerance="10"
     inkscape:pageopacity="0"
     inkscape:pageshadow="2"
     inkscape:window-width="1781"
     inkscape:window-height="893"
     id="namedview10"
     showgrid="false"
     inkscape:zoom="5.44"
     inkscape:cx="50"
     inkscape:cy="62.5"
     inkscape:window-x="332"
     inkscape:window-y="3"
     inkscape:window-maximized="0"
     inkscape:current-layer="svg8" /><path
     d="m 50,16.764706 c -24.8,0 -45,20.2 -45,45 0,24.8 20.2,45.000004 45,45.000004 24.8,0 45,-20.200004 45,-45.000004 0,-24.8 -20.2,-45 -45,-45 z m 0,86.000004 c -22.6,0 -41,-18.400004 -41,-41.000004 0,-22.6 18.4,-41 41,-41 22.6,0 41,18.4 41,41 0,22.6 -18.4,41.000004 -41,41.000004 z m 0,-48.000004 c -3.9,0 -7,3.1 -7,7 0,3.9 3.1,7 7,7 3.9,0 7,-3.1 7,-7 0,-3.9 -3.1,-7 -7,-7 z m 0,10 c -1.7,0 -3,-1.3 -3,-3 0,-1.7 1.3,-3 3,-3 1.7,0 3,1.3 3,3 0,1.7 -1.3,3 -3,3 z m -24,-10 c -3.9,0 -7,3.1 -7,7 0,3.9 3.1,7 7,7 3.9,0 7,-3.1 7,-7 0,-3.9 -3.1,-7 -7,-7 z m 0,10 c -1.7,0 -3,-1.3 -3,-3 0,-1.7 1.3,-3 3,-3 1.7,0 3,1.3 3,3 0,1.7 -1.3,3 -3,3 z m 48,-10 c -3.9,0 -7,3.1 -7,7 0,3.9 3.1,7 7,7 3.9,0 7,-3.1 7,-7 0,-3.9 -3.1,-7 -7,-7 z m 0,10 c -1.7,0 -3,-1.3 -3,-3 0,-1.7 1.3,-3 3,-3 1.7,0 3,1.3 3,3 0,1.7 -1.3,3 -3,3 z"
     id="path2"
     inkscape:connector-curvature="0"
     style="fill:#2c5aa0" /></svg>