<?xml version="1.0" encoding="UTF-8" standalone="no"?>
<svg
   xmlns:dc="http://purl.org/dc/elements/1.1/"
   xmlns:cc="http://creativecommons.org/ns#"
   xmlns:rdf="http://www.w3.org/1999/02/22-rdf-syntax-ns#"
   xmlns:svg="http://www.w3.org/2000/svg"
   xmlns="http://www.w3.org/2000/svg"
   xmlns:sodipodi="http://sodipodi.sourceforge.net/DTD/sodipodi-0.dtd"
   xmlns:inkscape="http://www.inkscape.org/namespaces/inkscape"
   version="1.1"
   x="0px"
   y="0px"
   viewBox="0 0 100 100"
   enable-background="new 0 0 100 100"
   xml:space="preserve"
   id="svg8"
   sodipodi:docname="noun_optimization_581720.svg"
   width="100"
   height="100"
   inkscape:version="0.92.2 5c3e80d, 2017-08-06"><metadata
     id="metadata14"><rdf:RDF><cc:Work
         rdf:about=""><dc:format>image/svg+xml</dc:format><dc:type
           rdf:resource="http://purl.org/dc/dcmitype/StillImage" /><dc:title></dc:title></cc:Work></rdf:RDF></metadata><defs
     id="defs12" /><sodipodi:namedview
     pagecolor="#ffffff"
     bordercolor="#666666"
     borderopacity="1"
     objecttolerance="10"
     gridtolerance="10"
     guidetolerance="10"
     inkscape:pageopacity="0"
     inkscape:pageshadow="2"
     inkscape:window-width="1849"
     inkscape:window-height="963"
     id="namedview10"
     showgrid="false"
     inkscape:zoom="1.888"
     inkscape:cx="50"
     inkscape:cy="62.5"
     inkscape:window-x="0"
     inkscape:window-y="0"
     inkscape:window-maximized="0"
     inkscape:current-layer="svg8" /><path
     d="m 10.988983,50.423729 c 0,0.6 -0.4,1 -1,1 -0.6,0 -1,-0.4 -1,-1 0,-23.5 19.1,-42.6 42.6,-42.6 h 1.8 l -4.5,-4.4 c -0.4,-0.4 -0.4,-1 0,-1.4 0.4,-0.4 1,-0.4 1.4,0 l 6.1,6.1 c 0.2,0.2 0.3,0.4 0.3,0.7 0,0.3 0,0.6 -0.2,0.7 l -6.1,6.1 c -0.2,0.2 -0.5,0.3 -0.7,0.3 -0.2,0 -0.5,-0.1 -0.7,-0.3 -0.4,-0.4 -0.4,-1 0,-1.4 l 4.4,-4.4 h -1.8 c -22.4,0 -40.6,18.2 -40.6,40.6 z m 82.2,-1 c -0.6,0 -1,0.4 -1,1 0,22.4 -18.2,40.599999 -40.6,40.599999 h -1.8 l 4.4,-4.4 c 0.4,-0.4 0.4,-1 0,-1.4 -0.4,-0.4 -1,-0.4 -1.4,0 l -6.1,6.1 c -0.2,0.2 -0.3,0.4 -0.3,0.7 0,0.3 0.1,0.5 0.3,0.7 l 6.1,6.1 c 0.2,0.2 0.5,0.3 0.7,0.3 0.2,0 0.5,-0.1 0.7,-0.3 0.4,-0.4 0.4,-1 0,-1.4 l -4.4,-4.4 h 1.8 c 23.5,0 42.6,-19.099999 42.6,-42.599999 0,-0.6 -0.5,-1 -1,-1 z m -15.3,-4 -2.7,1.1 c 0.4,2.5 0.4,5.1 0,7.7 l 2.7,1.1 c 0.8,0.4 1.5,1 1.9,1.9 0.3,0.8 0.3,1.8 0,2.6 l -1.6,3.8 c -0.5,1.3 -1.8,2.1 -3.2,2.1 -0.5,0 -0.9,-0.1 -1.3,-0.3 l -2.7,-1.1 c -1.5,2.1 -3.3,3.9 -5.4,5.4 l 1.1,2.7 c 0.7,1.699999 -0.1,3.799999 -1.9,4.499999 l -3.8,1.6 c -0.4,0.2 -0.9,0.3 -1.3,0.3 -1.4,0 -2.6,-0.8 -3.2,-2.1 l -1.1,-2.7 c -2.5,0.4 -5.1,0.4 -7.7,0 l -1.1,2.7 c -0.5,1.3 -1.8,2.1 -3.2,2.1 -0.5,0 -0.9,-0.1 -1.3,-0.3 l -3.8,-1.6 c -0.8,-0.4 -1.5,-1 -1.9,-1.9 -0.3,-0.8 -0.3,-1.799999 0,-2.599999 l 1.1,-2.7 c -2.1,-1.5 -3.9,-3.3 -5.4,-5.4 l -2.7,1.1 c -0.4,0.2 -0.9,0.3 -1.3,0.3 -1.4,0 -2.6,-0.8 -3.2,-2.1 l -1.6,-3.8 c -0.7,-1.7 0.1,-3.8 1.9,-4.5 l 2.7,-1.1 c -0.4,-2.5 -0.4,-5.1 0,-7.7 l -2.6,-1.1 c -0.8,-0.4 -1.5,-1 -1.9,-1.9 -0.3,-0.8 -0.3,-1.8 0,-2.6 l 1.6,-3.8 c 0.5,-1.3 1.8,-2.1 3.2,-2.1 0.5,0 0.9,0.1 1.3,0.3 l 2.7,1.1 c 1.5,-2.1 3.3,-3.9 5.4,-5.4 l -1.1,-2.7 c -0.7,-1.7 0.1,-3.8 1.9,-4.5 l 3.8,-1.6 c 0.4,-0.2 0.9,-0.3 1.3,-0.3 1.4,0 2.6,0.8 3.2,2.1 l 1.1,2.7 c 2.5,-0.4 5.1,-0.4 7.7,0 l 1.1,-2.7 c 0.5,-1.3 1.8,-2.1 3.2,-2.1 0.5,0 0.9,0.1 1.3,0.3 l 3.8,1.6 c 0.8,0.4 1.5,1 1.9,1.9 0.3,0.8 0.3,1.8 0,2.6 l -1.1,2.7 c 2.1,1.5 3.9,3.3 5.4,5.4 l 2.7,-1.1 c 0.4,-0.2 0.9,-0.3 1.3,-0.3 1.4,0 2.6,0.8 3.2,2.1 l 1.6,3.8 c 0.4,0.8 0.4,1.8 0,2.6 -0.4,0.8 -1.2,1.6 -2,1.9 z m 0,-2.6 c 0.1,-0.4 0.1,-0.7 0,-1.1 l -1.6,-3.8 c -0.3,-0.7 -1.1,-1.1 -1.9,-0.8 l -3.5,1.4 c -0.4,0.2 -0.9,0 -1.2,-0.4 -1.6,-2.4 -3.6,-4.4 -6,-6 -0.4,-0.3 -0.6,-0.8 -0.4,-1.2 l 1.4,-3.5 c 0.1,-0.4 0.1,-0.7 0,-1.1 -0.1,-0.4 -0.4,-0.6 -0.8,-0.8 l -3.8,-1.6 c -0.7,-0.3 -1.6,0.1 -1.9,0.8 l -1.2,3.7 c -0.2,0.4 -0.7,0.7 -1.1,0.6 -2.8,-0.6 -5.7,-0.6 -8.5,0 -0.5,0.1 -0.9,-0.2 -1.1,-0.6 l -1.4,-3.5 c -0.3,-0.7 -1.1,-1.1 -1.9,-0.8 l -3.8,1.6 c -0.7,0.3 -1.1,1.1 -0.8,1.9 l 1.4,3.5 c 0.2,0.4 0,1 -0.4,1.2 -2.4,1.6 -4.4,3.6 -6,6 -0.3,0.4 -0.8,0.5 -1.2,0.4 l -3.5,-1.4 c -0.7,-0.3 -1.6,0.1 -1.9,0.8 l -1.6,3.8 c -0.1,0.4 -0.1,0.7 0,1.1 0.1,0.4 0.4,0.6 0.8,0.8 l 3.5,1.4 c 0.4,0.2 0.7,0.7 0.6,1.1 -0.6,2.8 -0.6,5.7 0,8.5 0.1,0.5 -0.2,0.9 -0.6,1.1 l -3.5,1.4 c -0.7,0.3 -1.1,1.1 -0.8,1.9 l 1.6,3.8 c 0.3,0.7 1.1,1.1 1.9,0.8 l 3.5,-1.4 c 0.4,-0.2 0.9,0 1.2,0.4 1.6,2.4 3.6,4.4 6,6 0.4,0.3 0.6,0.8 0.4,1.2 l -1.4,3.5 c -0.1,0.4 -0.1,0.699999 0,1.099999 0.1,0.4 0.4,0.6 0.8,0.8 l 3.8,1.6 c 0.7,0.3 1.6,-0.1 1.9,-0.8 l 1.4,-3.499999 c 0.2,-0.4 0.6,-0.7 1.1,-0.6 2.8,0.6 5.7,0.6 8.5,0 0.1,0 0.1,0 0.2,0 0.4,0 0.8,0.2 0.9,0.6 l 1.4,3.499999 c 0.3,0.7 1.1,1.1 1.9,0.8 l 3.8,-1.6 c 0.7,-0.3 1.1,-1.1 0.8,-1.899999 l -1.4,-3.5 c -0.2,-0.4 0,-1 0.4,-1.2 2.4,-1.6 4.4,-3.6 6,-6 0.3,-0.4 0.8,-0.6 1.2,-0.4 l 3.5,1.4 c 0.2,0.1 0.4,0.1 0.5,0.1 0.6,0 1.1,-0.3 1.3,-0.9 l 1.6,-3.8 c 0.1,-0.4 0.1,-0.7 0,-1.1 -0.1,-0.4 -0.4,-0.6 -0.8,-0.8 l -3.6,-1.5 c -0.4,-0.2 -0.7,-0.7 -0.6,-1.1 0.6,-2.8 0.6,-5.7 0,-8.5 -0.1,-0.5 0.2,-0.9 0.6,-1.1 l 3.5,-1.4 c 0.4,-0.2 0.6,-0.5 0.8,-0.9 z m -15.3,3.1 c 2.5,6.1 -0.4,13 -6.4,15.5 -1.5,0.6 -3,0.9 -4.5,0.9 -4.8,0 -9.1,-2.9 -11,-7.3 -2.5,-6.1 0.4,-13 6.4,-15.5 1.5,-0.6 3,-0.9 4.5,-0.9 4.8,-0.1 9.1,2.8 11,7.3 z m -1.9,0.7 c -1.5,-3.7 -5.1,-6.1 -9.1,-6.1 -1.3,0 -2.6,0.3 -3.8,0.8 -5,2.1 -7.4,7.9 -5.3,12.9 1.5,3.7 5.1,6.1 9.1,6.1 1.3,0 2.6,-0.3 3.8,-0.8 5,-2.1 7.4,-7.8 5.3,-12.9 z"
     id="path2"
     inkscape:connector-curvature="0" /></svg>