<?xml version="1.0" encoding="UTF-8" standalone="no"?>
<svg
   xmlns:dc="http://purl.org/dc/elements/1.1/"
   xmlns:cc="http://creativecommons.org/ns#"
   xmlns:rdf="http://www.w3.org/1999/02/22-rdf-syntax-ns#"
   xmlns:svg="http://www.w3.org/2000/svg"
   xmlns="http://www.w3.org/2000/svg"
   xmlns:sodipodi="http://sodipodi.sourceforge.net/DTD/sodipodi-0.dtd"
   xmlns:inkscape="http://www.inkscape.org/namespaces/inkscape"
   version="1.1"
   x="0px"
   y="0px"
   viewBox="0 0 100 100"
   id="svg10"
   sodipodi:docname="noun_Mail_1707175.svg"
   width="100"
   height="100"
   inkscape:version="0.92.2 5c3e80d, 2017-08-06">
  <metadata
     id="metadata16">
    <rdf:RDF>
      <cc:Work
         rdf:about="">
        <dc:format>image/svg+xml</dc:format>
        <dc:type
           rdf:resource="http://purl.org/dc/dcmitype/StillImage" />
        <dc:title></dc:title>
      </cc:Work>
    </rdf:RDF>
  </metadata>
  <defs
     id="defs14" />
  <sodipodi:namedview
     pagecolor="#ffffff"
     bordercolor="#666666"
     borderopacity="1"
     objecttolerance="10"
     gridtolerance="10"
     guidetolerance="10"
     inkscape:pageopacity="0"
     inkscape:pageshadow="2"
     inkscape:window-width="907"
     inkscape:window-height="480"
     id="namedview12"
     showgrid="false"
     inkscape:zoom="1.888"
     inkscape:cx="50"
     inkscape:cy="62.5"
     inkscape:window-x="0"
     inkscape:window-y="0"
     inkscape:window-maximized="0"
     inkscape:current-layer="svg10" />
  <g
     transform="translate(0,-950.34949)"
     id="g4">
    <path
       style="color:#000000;text-indent:0;text-transform:none;direction:ltr;baseline-shift:baseline;display:inline;overflow:visible;visibility:visible;fill:#000000;fill-opacity:1;stroke:none;enable-background:accumulate"
       d="m 17,974.36218 c -3.8813,0 -7,3.2501 -7,7.2188 v 41.53122 c 0,3.9686 3.1187,7.25 7,7.25 h 66 c 3.8813,0 7,-3.2814 7,-7.25 v -41.53122 c 0,-3.9687 -3.1187,-7.2188 -7,-7.2188 z m 0,2 h 66 c 1.2496,0 2.3746,0.4999 3.25,1.2812 L 53.1562,1009.081 c -1.8333,1.7408 -4.4143,1.7086 -6.25,-0.031 L 13.75,977.64368 c 0.8754,-0.7813 2.0004,-1.2812 3.25,-1.2812 z m -4.4375,2.9062 24.7187,23.43762 -24,23.9374 C 12.4893,1025.7179 12,1024.4741 12,1023.1122 v -41.53122 c 0,-0.8509 0.2285,-1.6109 0.5625,-2.3126 z m 74.875,0 c 0.334,0.7017 0.5625,1.4617 0.5625,2.3126 v 41.53122 c 0,1.3619 -0.4893,2.6057 -1.2812,3.5312 l -23.9376,-23.9687 z m -26.0937,24.78132 23.75,23.8125 c -0.6411,0.3104 -1.3387,0.5 -2.0938,0.5 H 17 c -0.7551,0 -1.4527,-0.1896 -2.0938,-0.5 l 23.8126,-23.7812 6.8124,6.4374 c 2.547,2.4142 6.4546,2.417 9,0 z"
       marker="none"
       visibility="visible"
       display="inline"
       overflow="visible"
       id="path2"
       inkscape:connector-curvature="0" />
  </g>
</svg>
