<?xml version="1.0" encoding="UTF-8" standalone="no"?>
<svg
   xmlns:dc="http://purl.org/dc/elements/1.1/"
   xmlns:cc="http://creativecommons.org/ns#"
   xmlns:rdf="http://www.w3.org/1999/02/22-rdf-syntax-ns#"
   xmlns:svg="http://www.w3.org/2000/svg"
   xmlns="http://www.w3.org/2000/svg"
   xmlns:sodipodi="http://sodipodi.sourceforge.net/DTD/sodipodi-0.dtd"
   xmlns:inkscape="http://www.inkscape.org/namespaces/inkscape"
   width="1260"
   height="480"
   version="1.1"
   id="svg1454"
   sodipodi:docname="lpa-driver-scheme1-V2.svg"
   inkscape:version="0.92.2 5c3e80d, 2017-08-06"
   inkscape:export-filename="/Users/cassou/temp/slides/CS-IN2P3/slides/img/lpa-driver-scheme1-V2.png"
   inkscape:export-xdpi="96"
   inkscape:export-ydpi="96">
  <metadata
     id="metadata1460">
    <rdf:RDF>
      <cc:Work
         rdf:about="">
        <dc:format>image/svg+xml</dc:format>
        <dc:type
           rdf:resource="http://purl.org/dc/dcmitype/StillImage" />
        <dc:title />
      </cc:Work>
    </rdf:RDF>
  </metadata>
  <defs
     id="defs1458">
    <marker
       inkscape:stockid="TriangleOutL"
       orient="auto"
       refY="0"
       refX="0"
       id="marker2384"
       style="overflow:visible"
       inkscape:isstock="true">
      <path
         inkscape:connector-curvature="0"
         id="path2382"
         d="M 5.77,0 -2.88,5 V -5 Z"
         style="fill:#000000;fill-opacity:1;fill-rule:evenodd;stroke:#000000;stroke-width:1.00000003pt;stroke-opacity:1"
         transform="scale(0.8)" />
    </marker>
    <marker
       inkscape:stockid="EmptyTriangleOutL"
       orient="auto"
       refY="0"
       refX="0"
       id="EmptyTriangleOutL"
       style="overflow:visible"
       inkscape:isstock="true">
      <path
         id="path1601"
         d="M 5.77,0 -2.88,5 V -5 Z"
         style="fill:#333333;fill-opacity:1;fill-rule:evenodd;stroke:#000000;stroke-width:1.00000003pt;stroke-opacity:1"
         transform="matrix(0.8,0,0,0.8,-4.8,0)"
         inkscape:connector-curvature="0" />
    </marker>
    <inkscape:path-effect
       only_selected="false"
       apply_with_weight="true"
       apply_no_weight="true"
       helper_size="0"
       steps="2"
       weight="33.333333"
       is_visible="true"
       id="path-effect6223"
       effect="bspline" />
    <inkscape:path-effect
       effect="bspline"
       id="path-effect6219"
       is_visible="true"
       weight="33.333333"
       steps="2"
       helper_size="0"
       apply_no_weight="true"
       apply_with_weight="true"
       only_selected="false" />
    <inkscape:path-effect
       only_selected="false"
       apply_with_weight="true"
       apply_no_weight="true"
       helper_size="0"
       steps="2"
       weight="33.333333"
       is_visible="true"
       id="path-effect6204"
       effect="bspline" />
    <inkscape:path-effect
       effect="bspline"
       id="path-effect6186"
       is_visible="true"
       weight="33.333333"
       steps="2"
       helper_size="0"
       apply_no_weight="true"
       apply_with_weight="true"
       only_selected="false" />
    <inkscape:path-effect
       effect="bspline"
       id="path-effect6182"
       is_visible="true"
       weight="33.333333"
       steps="2"
       helper_size="0"
       apply_no_weight="true"
       apply_with_weight="true"
       only_selected="false" />
    <inkscape:path-effect
       only_selected="false"
       apply_with_weight="true"
       apply_no_weight="true"
       helper_size="0"
       steps="2"
       weight="33.333333"
       is_visible="true"
       id="path-effect6176"
       effect="bspline" />
    <inkscape:path-effect
       only_selected="false"
       apply_with_weight="true"
       apply_no_weight="true"
       helper_size="0"
       steps="2"
       weight="33.333333"
       is_visible="true"
       id="path-effect6172"
       effect="bspline" />
    <inkscape:path-effect
       effect="bspline"
       id="path-effect6168"
       is_visible="true"
       weight="33.333333"
       steps="2"
       helper_size="0"
       apply_no_weight="true"
       apply_with_weight="true"
       only_selected="false" />
    <inkscape:path-effect
       effect="bspline"
       id="path-effect5557"
       is_visible="true"
       weight="33.333333"
       steps="2"
       helper_size="0"
       apply_no_weight="true"
       apply_with_weight="true"
       only_selected="false" />
    <marker
       inkscape:isstock="true"
       style="overflow:visible"
       id="marker5217"
       refX="0"
       refY="0"
       orient="auto"
       inkscape:stockid="TriangleOutL"
       inkscape:collect="always">
      <path
         transform="scale(0.8)"
         style="fill:#000000;fill-opacity:1;fill-rule:evenodd;stroke:#000000;stroke-width:1.00000003pt;stroke-opacity:1"
         d="M 5.77,0 -2.88,5 V -5 Z"
         id="path5215"
         inkscape:connector-curvature="0" />
    </marker>
  </defs>
  <sodipodi:namedview
     pagecolor="#ffffff"
     bordercolor="#666666"
     borderopacity="1"
     objecttolerance="10"
     gridtolerance="10"
     guidetolerance="10"
     inkscape:pageopacity="0"
     inkscape:pageshadow="2"
     inkscape:window-width="1981"
     inkscape:window-height="1246"
     id="namedview1456"
     showgrid="false"
     inkscape:snap-global="true"
     inkscape:measure-start="0,0"
     inkscape:measure-end="0,0"
     inkscape:zoom="1.1130769"
     inkscape:cx="556.56531"
     inkscape:cy="342.19074"
     inkscape:window-x="41"
     inkscape:window-y="1"
     inkscape:window-maximized="0"
     inkscape:current-layer="svg1454"
     showguides="false" />
  <path
     style="fill:none;stroke:#ff0000;stroke-width:1;stroke-linecap:butt;stroke-linejoin:miter;stroke-opacity:1;stroke-miterlimit:4;stroke-dasharray:2,1;stroke-dashoffset:0"
     d="M 433.03386,283.2481 H 397.99585 V 46.067726"
     id="path2430"
     inkscape:connector-curvature="0" />
  <g
     inkscape:groupmode="layer"
     id="layer1"
     inkscape:label="frontend"
     transform="translate(0,-53.5)"
     style="display:inline" />
  <g
     inkscape:groupmode="layer"
     id="layer2"
     inkscape:label="amplifiers"
     transform="translate(0,-53.5)"
     style="display:inline">
    <g
       id="g398"
       transform="translate(-235,81)" />
  </g>
  <g
     inkscape:groupmode="layer"
     id="layer3"
     inkscape:label="LPA"
     transform="translate(0,-53.5)"
     style="display:inline" />
  <g
     inkscape:groupmode="layer"
     id="layer4"
     inkscape:label="laser-diag1"
     transform="translate(0,-320)" />
  <g
     inkscape:groupmode="layer"
     id="layer5"
     inkscape:label="laser diag 2"
     transform="translate(0,-320)" />
  <path
     style="fill:none;stroke:#ff0000;stroke-width:1px;stroke-linecap:butt;stroke-linejoin:miter;stroke-opacity:1"
     d="M 393.19035,190.32935 H 269.9676 v -90.04739"
     id="path1836"
     inkscape:connector-curvature="0"
     sodipodi:nodetypes="ccc" />
  <g
     id="g5487"
     transform="translate(-170.88154,8.234323)">
    <rect
       id="rect1032"
       style="fill:#e0e0e0;stroke:#707070;stroke-width:1.33000004px"
       ry="13.3"
       rx="13.3"
       border="1"
       height="30"
       width="80"
       y="362.92368"
       x="603.82257" />
    <text
       id="text5382"
       y="381.07281"
       x="611.65045"
       style="font-style:normal;font-variant:normal;font-weight:bold;font-stretch:normal;font-size:16px;line-height:1.25;font-family:Arial;-inkscape-font-specification:'Arial Bold';letter-spacing:0px;word-spacing:0px;fill:#000000;fill-opacity:1;stroke:none"
       xml:space="preserve"><tspan
         style="font-size:13.33333302px;fill:#4d4d4d"
         y="381.07281"
         x="611.65045"
         id="tspan5380"
         sodipodi:role="line">spectrum</tspan></text>
  </g>
  <g
     id="g538"
     transform="translate(-16.765027,4.802347)">
    <rect
       id="rect5390"
       style="fill:#e0e0e0;stroke:#707070;stroke-width:1.33000004px"
       ry="13.3"
       rx="13.3"
       border="1"
       height="29.999985"
       width="103.30099"
       y="332.35568"
       x="449.70605" />
    <text
       id="text5394"
       y="350.50482"
       x="458.50482"
       style="font-style:normal;font-variant:normal;font-weight:bold;font-stretch:normal;font-size:16px;line-height:1.25;font-family:Arial;-inkscape-font-specification:'Arial Bold';letter-spacing:0px;word-spacing:0px;fill:#000000;fill-opacity:1;stroke:none"
       xml:space="preserve"><tspan
         style="font-size:13.33333302px;fill:#4d4d4d"
         y="350.50482"
         x="458.50482"
         id="tspan5392"
         sodipodi:role="line">spatial profile</tspan></text>
  </g>
  <g
     id="g543"
     transform="translate(-365.76503,-14.197622)">
    <rect
       x="798.70605"
       y="248.3557"
       width="103.30099"
       height="29.999985"
       border="1"
       rx="13.3"
       ry="13.3"
       style="fill:#ffcc00;stroke:#707070;stroke-width:1.33000004px"
       id="rect447" />
    <text
       xml:space="preserve"
       style="font-style:normal;font-variant:normal;font-weight:bold;font-stretch:normal;font-size:16px;line-height:1.25;font-family:Arial;-inkscape-font-specification:'Arial Bold';letter-spacing:0px;word-spacing:0px;fill:#000000;fill-opacity:1;stroke:none"
       x="807.50482"
       y="266.50482"
       id="text451"><tspan
         sodipodi:role="line"
         id="tspan449"
         x="807.50482"
         y="266.50482"
         style="font-size:13.33333302px;fill:#4d4d4d">spectral pase</tspan></text>
  </g>
  <g
     id="g583"
     transform="translate(-88.240738,-212.09087)">
    <rect
       x="1035.1818"
       y="514.2489"
       width="114.95145"
       height="30"
       border="1"
       rx="13.3"
       ry="13.3"
       style="fill:#ffcc00;stroke:#707070;stroke-width:1.33000004px"
       id="rect5425" />
    <text
       xml:space="preserve"
       style="font-style:normal;font-variant:normal;font-weight:bold;font-stretch:normal;font-size:16px;line-height:1.25;font-family:Arial;-inkscape-font-specification:'Arial Bold';letter-spacing:0px;word-spacing:0px;fill:#000000;fill-opacity:1;stroke:none"
       x="1043.0096"
       y="532.39807"
       id="text5429"><tspan
         sodipodi:role="line"
         id="tspan5427"
         x="1043.0096"
         y="532.39807"
         style="font-size:13.33333302px;fill:#4d4d4d">temporal profile</tspan></text>
  </g>
  <g
     id="g5456"
     transform="translate(-561.17281,-51.076315)">
    <rect
       id="rect5431"
       style="fill:#e0e0e0;stroke:#707070;stroke-width:1.33000004px"
       ry="13.3"
       rx="13.3"
       border="1"
       height="29.999985"
       width="67.378639"
       y="319.23438"
       x="994.11383" />
    <text
       id="text5435"
       y="337.38351"
       x="1002.9126"
       style="font-style:normal;font-variant:normal;font-weight:bold;font-stretch:normal;font-size:16px;line-height:1.25;font-family:Arial;-inkscape-font-specification:'Arial Bold';letter-spacing:0px;word-spacing:0px;fill:#000000;fill-opacity:1;stroke:none"
       xml:space="preserve"><tspan
         style="font-size:13.33333302px;fill:#4d4d4d"
         y="337.38351"
         x="1002.9126"
         id="tspan5433"
         sodipodi:role="line">energy</tspan></text>
  </g>
  <path
     style="display:inline;fill:#333333;stroke:#000000;stroke-width:1px;stroke-linecap:butt;stroke-linejoin:miter;stroke-opacity:1;marker-end:url(#EmptyTriangleOutL)"
     d="M 242.23497,82.80235 H 1240.235"
     id="path628"
     inkscape:connector-curvature="0" />
  <g
     style="display:inline;fill:none"
     id="g4"
     transform="matrix(1.33,0,0,1.33,18.612339,64.038287)">
    <path
       style="stroke:#707070;stroke-width:1;stroke-linecap:round"
       inkscape:connector-curvature="0"
       id="path2"
       d="m 91,15 h 7.370608"
       sodipodi:nodetypes="cc" />
  </g>
  <g
     style="display:inline;fill:none"
     id="g144"
     transform="matrix(1.33,0,0,1.33,10.418149,61.611097)">
    <rect
       id="rect80"
       style="fill:#22aae0;stroke:#707070;stroke-width:1px"
       ry="10"
       rx="10"
       border="1"
       height="30"
       width="101"
       y="0"
       x="0" />
    <text
       xml:space="preserve"
       style="font-style:normal;font-variant:normal;font-weight:normal;font-stretch:normal;font-size:14.03508759px;line-height:1.25;font-family:sans-serif;-inkscape-font-specification:sans-serif;letter-spacing:0px;word-spacing:0px;fill:#000000;fill-opacity:1;stroke:none;stroke-width:0.75187969"
       x="12.418936"
       y="22.277319"
       id="text3374"><tspan
         sodipodi:role="line"
         id="tspan3372"
         x="12.418936"
         y="34.695084"
         style="font-style:normal;font-variant:normal;font-weight:normal;font-stretch:normal;font-family:sans-serif;-inkscape-font-specification:sans-serif;stroke-width:0.75187969" /></text>
    <text
       xml:space="preserve"
       style="font-style:normal;font-variant:normal;font-weight:bold;font-stretch:normal;font-size:12.03007507px;line-height:1.25;font-family:sans;-inkscape-font-specification:'sans Bold';letter-spacing:0px;word-spacing:0px;fill:#000000;fill-opacity:1;stroke:none;stroke-width:0.75187969"
       x="7.309073"
       y="19.357397"
       id="text3378"><tspan
         sodipodi:role="line"
         id="tspan3376"
         x="7.309073"
         y="19.357397"
         style="font-style:normal;font-variant:normal;font-weight:bold;font-stretch:normal;font-family:Arial;-inkscape-font-specification:'Arial Bold';fill:#ffffff;stroke-width:0.75187969">laser oscillator</tspan></text>
  </g>
  <g
     style="display:inline"
     id="g517"
     transform="translate(-19.860188,280.53536)">
    <rect
       id="rect146"
       style="fill:#0066ff;stroke:#707070;stroke-width:1.33000004px"
       ry="13.3"
       rx="13.3"
       border="1"
       height="39.900002"
       width="90.440002"
       y="-218.92426"
       x="170.60834" />
    <text
       xml:space="preserve"
       style="font-style:normal;font-variant:normal;font-weight:bold;font-stretch:normal;font-size:16px;line-height:1.25;font-family:sans;-inkscape-font-specification:'sans Bold';letter-spacing:0px;word-spacing:0px;fill:#e6e6e6;fill-opacity:1;stroke:none;stroke-width:1"
       x="181.53531"
       y="-195.17892"
       id="text3400"><tspan
         sodipodi:role="line"
         id="tspan3398"
         x="181.53531"
         y="-195.17892"
         style="font-style:normal;font-variant:normal;font-weight:bold;font-stretch:normal;font-family:Arial;-inkscape-font-specification:'Arial Bold';fill:#e6e6e6;stroke-width:1">stretcher</tspan></text>
  </g>
  <g
     style="display:inline"
     id="g512"
     transform="translate(65.190318,230.90429)">
    <rect
       id="rect188"
       style="fill:#ff2a2a;stroke:#707070;stroke-width:1.33000004px"
       ry="13.3"
       rx="13.3"
       border="1"
       height="39.900002"
       width="70.489998"
       y="-169.2932"
       x="181.99783" />
    <text
       xml:space="preserve"
       style="font-style:normal;font-variant:normal;font-weight:bold;font-stretch:normal;font-size:16px;line-height:1.25;font-family:sans;-inkscape-font-specification:'sans Bold';letter-spacing:0px;word-spacing:0px;fill:#000000;fill-opacity:1;stroke:none;stroke-width:1"
       x="189.47708"
       y="-143.54785"
       id="text3404"><tspan
         sodipodi:role="line"
         id="tspan3402"
         x="189.47708"
         y="-143.54785"
         style="font-style:normal;font-variant:normal;font-weight:bold;font-stretch:normal;font-family:Arial;-inkscape-font-specification:'Arial Bold';fill:#e6e6e6;stroke-width:1">AOPDF</tspan></text>
  </g>
  <path
     style="display:inline;fill:none;stroke:#000000;stroke-width:1px;stroke-linecap:butt;stroke-linejoin:miter;stroke-opacity:1"
     d="m 323.23497,82.80235 v 93 h -41 v 59"
     id="path1741"
     inkscape:connector-curvature="0" />
  <path
     inkscape:connector-curvature="0"
     id="path1743"
     d="m 509.94102,82.15806 v 93 h -41 v 59"
     style="display:inline;fill:none;stroke:#000000;stroke-width:1px;stroke-linecap:butt;stroke-linejoin:miter;stroke-opacity:1" />
  <path
     style="display:inline;fill:none;stroke:#000000;stroke-width:1px;stroke-linecap:butt;stroke-linejoin:miter;stroke-opacity:1"
     d="m 702.64006,81.15803 v 93 h -41 v 59"
     id="path1745"
     inkscape:connector-curvature="0" />
  <rect
     x="603.77704"
     y="61.611095"
     width="93.099998"
     height="39.900002"
     border="1"
     rx="13.3"
     ry="13.3"
     style="display:inline;fill:#e0e0e0;stroke:#707070;stroke-width:1.33000004px"
     id="rect804" />
  <text
     id="text3665"
     y="87.464798"
     x="613.58441"
     style="font-style:normal;font-variant:normal;font-weight:bold;font-stretch:normal;font-size:16px;line-height:1.25;font-family:Arial;-inkscape-font-specification:'Arial Bold';letter-spacing:0px;word-spacing:0px;display:inline;fill:#000000;fill-opacity:1;stroke:none;stroke-width:1"
     xml:space="preserve"><tspan
       style="stroke-width:1"
       y="87.464798"
       x="613.58441"
       id="tspan3663"
       sodipodi:role="line">transport</tspan></text>
  <g
     style="display:inline"
     id="g379"
     transform="translate(302.47175,105.21138)">
    <rect
       id="rect1352"
       style="fill:#ff6600;stroke:#707070;stroke-width:1.33000004px"
       ry="13.3"
       rx="13.3"
       border="1"
       height="39.900002"
       width="71.688835"
       y="-43.600281"
       x="21.206394" />
    <text
       id="text3498"
       y="-20.091551"
       x="35.244083"
       style="font-style:normal;font-variant:normal;font-weight:bold;font-stretch:normal;font-size:16px;line-height:1.25;font-family:Arial;-inkscape-font-specification:'Arial Bold';letter-spacing:0px;word-spacing:0px;fill:#000000;fill-opacity:1;stroke:none"
       xml:space="preserve"><tspan
         style="fill:#f2f2f2"
         y="-20.091551"
         x="35.244083"
         id="tspan3496"
         sodipodi:role="line">regen</tspan></text>
  </g>
  <g
     style="display:inline"
     id="g418"
     transform="translate(-125.77846,188.69517)">
    <g
       style="fill:none"
       id="g3538"
       transform="matrix(1.33,0,0,1.33,449.4566,-174.98407)">
      <rect
         id="rect3536"
         style="fill:#99cc00;stroke:#707070;stroke-width:1px"
         ry="10"
         rx="10"
         border="1"
         height="30"
         width="86"
         y="0"
         x="0" />
    </g>
    <text
       xml:space="preserve"
       style="font-style:normal;font-variant:normal;font-weight:bold;font-stretch:normal;font-size:16px;line-height:1.25;font-family:Arial;-inkscape-font-specification:'Arial Bold';letter-spacing:0px;word-spacing:0px;fill:#4d4d4d;fill-opacity:1;stroke:none;stroke-width:1"
       x="461.0499"
       y="-149.20805"
       id="text3542"><tspan
         sodipodi:role="line"
         id="tspan3540"
         x="461.0499"
         y="-149.20805"
         style="fill:#4d4d4d;stroke-width:1">pump lasers</tspan></text>
  </g>
  <g
     style="display:inline"
     id="g412"
     transform="translate(-100.39962,236.59518)">
    <g
       id="g437"
       transform="translate(-92)">
      <rect
         id="rect3534"
         style="fill:#ff6600;stroke:#707070;stroke-width:1.33000004px"
         ry="13.3"
         rx="13.3"
         border="1"
         height="39.900002"
         width="102.41"
         y="-174.98407"
         x="593.7666" />
      <text
         id="text3546"
         y="-150.12068"
         x="606.7392"
         style="font-style:normal;font-variant:normal;font-weight:bold;font-stretch:normal;font-size:16px;line-height:1.25;font-family:Arial;-inkscape-font-specification:'Arial Bold';letter-spacing:0px;word-spacing:0px;fill:#f2f2f2;fill-opacity:1;stroke:none"
         xml:space="preserve"><tspan
           y="-150.12068"
           x="606.7392"
           id="tspan3544"
           sodipodi:role="line">amplifiers</tspan></text>
    </g>
  </g>
  <text
     xml:space="preserve"
     style="font-style:normal;font-variant:normal;font-weight:bold;font-stretch:normal;font-size:16px;line-height:1.25;font-family:Arial;-inkscape-font-specification:'Arial Bold';letter-spacing:0px;word-spacing:0px;display:inline;fill:#000000;fill-opacity:1;stroke:none;stroke-width:1"
     x="1176.5844"
     y="129.4648"
     id="text1814"><tspan
       sodipodi:role="line"
       id="tspan1812"
       x="1176.5844"
       y="129.4648"
       style="stroke-width:1">to plasma</tspan></text>
  <g
     transform="translate(-19.765031,284.30235)"
     style="display:inline"
     id="g567">
    <rect
       id="rect730"
       style="fill:#ff0000;stroke:#707070;stroke-width:1.33000004px"
       ry="13.3"
       rx="13.3"
       border="1"
       height="39.900002"
       width="168.91"
       y="-222.69124"
       x="722.64203" />
    <text
       id="text3661"
       y="-197.80843"
       x="733.74951"
       style="font-style:normal;font-variant:normal;font-weight:bold;font-stretch:normal;font-size:16px;line-height:1.25;font-family:Arial;-inkscape-font-specification:'Arial Bold';letter-spacing:0px;word-spacing:0px;fill:#000000;fill-opacity:1;stroke:none"
       xml:space="preserve"><tspan
         style="fill:#f2f2f2"
         y="-197.80843"
         x="733.74951"
         id="tspan3659"
         sodipodi:role="line">optical compressor</tspan></text>
  </g>
  <g
     style="display:inline"
     id="g445"
     transform="translate(490.84635,-76.760843)">
    <rect
       id="rect846"
       style="fill:#ff0000;stroke:#707070;stroke-width:1.33000004px"
       ry="13.3"
       rx="13.3"
       border="1"
       height="39.900002"
       width="43.889999"
       y="138.37195"
       x="386.94067" />
    <text
       id="text3693"
       y="163.25476"
       x="395.742"
       style="font-style:normal;font-variant:normal;font-weight:bold;font-stretch:normal;font-size:16px;line-height:1.25;font-family:Arial;-inkscape-font-specification:'Arial Bold';letter-spacing:0px;word-spacing:0px;fill:#f2f2f2;fill-opacity:1;stroke:none"
       xml:space="preserve"><tspan
         y="163.25476"
         x="395.742"
         id="tspan3691"
         sodipodi:role="line">DM</tspan></text>
  </g>
  <g
     transform="translate(-361.9495,-127.07629)"
     id="g5837">
    <rect
       x="603.82257"
       y="362.92368"
       width="80"
       height="30"
       border="1"
       rx="13.3"
       ry="13.3"
       style="fill:#e0e0e0;stroke:#707070;stroke-width:1.33000004px"
       id="rect5831" />
    <text
       xml:space="preserve"
       style="font-style:normal;font-variant:normal;font-weight:bold;font-stretch:normal;font-size:16px;line-height:1.25;font-family:Arial;-inkscape-font-specification:'Arial Bold';letter-spacing:0px;word-spacing:0px;fill:#000000;fill-opacity:1;stroke:none"
       x="611.65045"
       y="381.07281"
       id="text5835"><tspan
         sodipodi:role="line"
         id="tspan5833"
         x="611.65045"
         y="381.07281"
         style="font-size:13.33333302px;fill:#4d4d4d">spectrum</tspan></text>
  </g>
  <g
     transform="translate(8.788379,-55.008383)"
     id="g5853">
    <rect
       x="602.85168"
       y="288.16641"
       width="103.30099"
       height="29.999985"
       border="1"
       rx="13.3"
       ry="13.3"
       style="fill:#e0e0e0;stroke:#707070;stroke-width:1.33000004px"
       id="rect5847" />
    <text
       xml:space="preserve"
       style="font-style:normal;font-variant:normal;font-weight:bold;font-stretch:normal;font-size:16px;line-height:1.25;font-family:Arial;-inkscape-font-specification:'Arial Bold';letter-spacing:0px;word-spacing:0px;fill:#000000;fill-opacity:1;stroke:none"
       x="611.65045"
       y="306.31555"
       id="text5851"><tspan
         sodipodi:role="line"
         id="tspan5849"
         x="611.65045"
         y="306.31555"
         style="font-size:13.33333302px;fill:#4d4d4d">spatial profile</tspan></text>
  </g>
  <g
     id="g479"
     transform="translate(212.23497,19.802347)">
    <rect
       id="rect471"
       style="fill:#ffcc00;stroke:#707070;stroke-width:1.33000004px"
       ry="13.3"
       rx="13.3"
       border="1"
       height="29.999985"
       width="103.30099"
       y="248.3557"
       x="734.70605" />
    <text
       id="text475"
       y="266.50482"
       x="745.50482"
       style="font-style:normal;font-variant:normal;font-weight:bold;font-stretch:normal;font-size:16px;line-height:1.25;font-family:Arial;-inkscape-font-specification:'Arial Bold';letter-spacing:0px;word-spacing:0px;fill:#000000;fill-opacity:1;stroke:none"
       xml:space="preserve"><tspan
         style="font-size:13.33333302px;fill:#4d4d4d"
         y="266.50482"
         x="745.50482"
         id="tspan473"
         sodipodi:role="line">spatial pase</tspan></text>
  </g>
  <g
     id="g559"
     transform="translate(-380.21169,-117.56661)">
    <rect
       x="813.15265"
       y="419.72467"
       width="67.378639"
       height="29.999985"
       border="1"
       rx="13.3"
       ry="13.3"
       style="fill:#e0e0e0;stroke:#707070;stroke-width:1.33000004px"
       id="rect545" />
    <text
       xml:space="preserve"
       style="font-style:normal;font-variant:normal;font-weight:bold;font-stretch:normal;font-size:16px;line-height:1.25;font-family:Arial;-inkscape-font-specification:'Arial Bold';letter-spacing:0px;word-spacing:0px;fill:#000000;fill-opacity:1;stroke:none"
       x="821.95142"
       y="437.87381"
       id="text549"><tspan
         sodipodi:role="line"
         id="tspan547"
         x="821.95142"
         y="437.87381"
         style="font-size:13.33333302px;fill:#4d4d4d">pointing</tspan></text>
  </g>
  <g
     transform="translate(-752.24076,-15.387023)"
     id="g607">
    <rect
       x="994.11383"
       y="319.23438"
       width="67.378639"
       height="29.999985"
       border="1"
       rx="13.3"
       ry="13.3"
       style="fill:#e0e0e0;stroke:#707070;stroke-width:1.33000004px"
       id="rect601" />
    <text
       xml:space="preserve"
       style="font-style:normal;font-variant:normal;font-weight:bold;font-stretch:normal;font-size:16px;line-height:1.25;font-family:Arial;-inkscape-font-specification:'Arial Bold';letter-spacing:0px;word-spacing:0px;fill:#000000;fill-opacity:1;stroke:none"
       x="1002.9126"
       y="337.38351"
       id="text605"><tspan
         sodipodi:role="line"
         id="tspan603"
         x="1002.9126"
         y="337.38351"
         style="font-size:13.33333302px;fill:#4d4d4d">energy</tspan></text>
  </g>
  <g
     id="g615"
     transform="translate(-360.97861,-18.31903)">
    <rect
       id="rect609"
       style="fill:#e0e0e0;stroke:#707070;stroke-width:1.33000004px"
       ry="13.3"
       rx="13.3"
       border="1"
       height="29.999985"
       width="103.30099"
       y="288.16641"
       x="602.85168" />
    <text
       id="text613"
       y="306.31555"
       x="611.65045"
       style="font-style:normal;font-variant:normal;font-weight:bold;font-stretch:normal;font-size:16px;line-height:1.25;font-family:Arial;-inkscape-font-specification:'Arial Bold';letter-spacing:0px;word-spacing:0px;fill:#000000;fill-opacity:1;stroke:none"
       xml:space="preserve"><tspan
         style="font-size:13.33333302px;fill:#4d4d4d"
         y="306.31555"
         x="611.65045"
         id="tspan611"
         sodipodi:role="line">spatial profile</tspan></text>
  </g>
  <g
     transform="translate(-571.27964,-81.877319)"
     id="g623">
    <rect
       id="rect617"
       style="fill:#e0e0e0;stroke:#707070;stroke-width:1.33000004px"
       ry="13.3"
       rx="13.3"
       border="1"
       height="29.999985"
       width="67.378639"
       y="419.72467"
       x="813.15265" />
    <text
       id="text621"
       y="437.87381"
       x="821.95142"
       style="font-style:normal;font-variant:normal;font-weight:bold;font-stretch:normal;font-size:16px;line-height:1.25;font-family:Arial;-inkscape-font-specification:'Arial Bold';letter-spacing:0px;word-spacing:0px;fill:#000000;fill-opacity:1;stroke:none"
       xml:space="preserve"><tspan
         style="font-size:13.33333302px;fill:#4d4d4d"
         y="437.87381"
         x="821.95142"
         id="tspan619"
         sodipodi:role="line">pointing</tspan></text>
  </g>
  <path
     style="fill:none;stroke:#ff0000;stroke-width:1px;stroke-linecap:butt;stroke-linejoin:miter;stroke-opacity:1"
     d="m 899.23497,100.80235 v 182 h 47"
     id="path1782"
     inkscape:connector-curvature="0" />
  <g
     id="g1764"
     transform="translate(375.27874,-93.705973)">
    <rect
       ry="12.62136"
       rx="13.3"
       y="212.14079"
       x="508.79608"
       height="27.184467"
       width="32.038868"
       id="rect1760"
       style="opacity:1;fill:#d7e3f4;fill-opacity:1;stroke:#4d4d4d;stroke-width:1.13699996;stroke-miterlimit:4;stroke-dasharray:none;stroke-dashoffset:0;stroke-opacity:1" />
    <path
       transform="matrix(0.26265574,0,0,-0.20846022,398.84052,269.06481)"
       d="m 453.94372,212.34586 c -4.52505,-13.16985 3.25127,-27.70448 16.37991,-31.89674 13.71281,-4.37879 28.69789,3.66083 32.95501,17.33883 4.37602,14.06004 -3.86821,29.37441 -17.89885,33.6846 -3.68587,1.13229 -7.60456,1.46836 -11.42971,0.98405"
       sodipodi:t0="0.23633569"
       sodipodi:argument="-17.584272"
       sodipodi:radius="27.365929"
       sodipodi:revolution="1.0703248"
       sodipodi:expansion="0.07"
       sodipodi:cy="205.34467"
       sodipodi:cx="477.66989"
       id="path1762"
       style="fill:none;fill-rule:evenodd;stroke:#000000;stroke-width:3.20520806;stroke-miterlimit:4;stroke-dasharray:none;marker-end:url(#marker5217)"
       sodipodi:type="spiral" />
  </g>
  <g
     transform="translate(-414.76503,-232.19765)"
     id="g1772">
    <g
       transform="translate(161.20928,138.63978)"
       id="g1770">
      <rect
         style="opacity:1;fill:#d7e3f4;fill-opacity:1;stroke:#4d4d4d;stroke-width:1.13699996;stroke-miterlimit:4;stroke-dasharray:none;stroke-dashoffset:0;stroke-opacity:1"
         id="rect1766"
         width="32.038868"
         height="27.184467"
         x="508.79608"
         y="212.14079"
         rx="13.3"
         ry="12.62136" />
      <path
         sodipodi:type="spiral"
         style="fill:none;fill-rule:evenodd;stroke:#000000;stroke-width:3.20520806;stroke-miterlimit:4;stroke-dasharray:none;marker-end:url(#marker5217)"
         id="path1768"
         sodipodi:cx="477.66989"
         sodipodi:cy="205.34467"
         sodipodi:expansion="0.07"
         sodipodi:revolution="1.0703248"
         sodipodi:radius="27.365929"
         sodipodi:argument="-17.584272"
         sodipodi:t0="0.23633569"
         d="m 453.94372,212.34586 c -4.52505,-13.16985 3.25127,-27.70448 16.37991,-31.89674 13.71281,-4.37879 28.69789,3.66083 32.95501,17.33883 4.37602,14.06004 -3.86821,29.37441 -17.89885,33.6846 -3.68587,1.13229 -7.60456,1.46836 -11.42971,0.98405"
         transform="matrix(0.26265574,0,0,-0.20846022,398.84052,269.06481)" />
    </g>
  </g>
  <g
     transform="translate(-201.51259,-152.56667)"
     id="g2286">
    <rect
       id="rect2280"
       style="fill:#e0e0e0;stroke:#707070;stroke-width:1.33000004px"
       ry="13.3"
       rx="13.3"
       border="1"
       height="29.999985"
       width="67.378639"
       y="419.72467"
       x="813.15265" />
    <text
       id="text2284"
       y="437.87381"
       x="821.95142"
       style="font-style:normal;font-variant:normal;font-weight:bold;font-stretch:normal;font-size:16px;line-height:1.25;font-family:Arial;-inkscape-font-specification:'Arial Bold';letter-spacing:0px;word-spacing:0px;fill:#000000;fill-opacity:1;stroke:none"
       xml:space="preserve"><tspan
         style="font-size:13.33333302px;fill:#4d4d4d"
         y="437.87381"
         x="821.95142"
         id="tspan2282"
         sodipodi:role="line">pointing</tspan></text>
  </g>
  <path
     style="fill:none;stroke:#ff0000;stroke-width:1px;stroke-linecap:butt;stroke-linejoin:miter;stroke-opacity:1"
     d="m 393.19035,190.32935 h 16.48484 v 56.08392 h 24.25708"
     id="path2308"
     inkscape:connector-curvature="0" />
  <path
     style="fill:none;stroke:#ff0000;stroke-width:1;stroke-linecap:butt;stroke-linejoin:miter;stroke-opacity:1;stroke-miterlimit:4;stroke-dasharray:2,1;stroke-dashoffset:0"
     d="M 946.92467,319.18452 H 795.99171 V 103.566"
     id="path2310"
     inkscape:connector-curvature="0" />
  <g
     id="g2428"
     transform="translate(-38.631652,-37.733242)">
    <rect
       style="opacity:1;fill:#d7e3f4;fill-opacity:1;stroke:#4d4d4d;stroke-width:1.13699996;stroke-miterlimit:4;stroke-dasharray:none;stroke-dashoffset:0;stroke-opacity:1"
       id="rect2374"
       width="32.038868"
       height="27.184467"
       x="819.38928"
       y="157.96487"
       rx="13.3"
       ry="12.62136" />
    <g
       transform="matrix(0.15618233,0,0,0.15618233,824.71461,161.10638)"
       id="g2372">
      <path
         inkscape:connector-curvature="0"
         d="m 96.58,37.13 a 5.08,5.08 0 0 0 -3.76,-3.29 7.72,7.72 0 0 0 -6.19,2 c -0.67,0.66 -1.07,1.07 -2.38,18.88 -0.61,8.3 -1.19,17.73 -1.19,19.41 0,1.3 -0.48,5.66 -1,10.11 -0.11,-0.26 -0.22,-0.53 -0.33,-0.84 -1.57,-4.31 -5.2,-8 -10.24,-10.35 -3.36,-1.58 -6.64,-1.46 -8.77,0.34 A 5.21,5.21 0 0 0 61,78.77 c 0.51,1.85 1.82,3.68 3.34,5.81 a 36.57,36.57 0 0 1 3.66,5.76 43.78,43.78 0 0 1 2.21,6.51 41.66,41.66 0 0 0 2.7,7.59 c 0.54,1.05 1.12,2.17 1.72,3.31 a 101.65,101.65 0 0 1 5,10.35 c 1.74,4.69 8.91,9.06 9.72,9.54 a 2,2 0 0 0 2,-3.44 c -2.6,-1.55 -7.08,-5 -8,-7.5 a 102.54,102.54 0 0 0 -5.16,-10.81 c -0.59,-1.13 -1.17,-2.23 -1.7,-3.27 A 38.06,38.06 0 0 1 74,95.76 a 47.45,47.45 0 0 0 -2.43,-7.1 40.16,40.16 0 0 0 -4,-6.41 18.76,18.76 0 0 1 -2.74,-4.54 1.2,1.2 0 0 1 0.41,-1.29 c 0.69,-0.59 2.24,-0.83 4.49,0.22 5.49,2.58 7.48,6.18 8.18,8.1 a 13.64,13.64 0 0 0 3.34,5.43 c -0.18,1.4 -0.34,2.64 -0.46,3.56 A 2,2 0 0 0 82.55,96 h 0.27 a 2,2 0 0 0 2,-1.74 c 0.23,-1.74 2.27,-17.09 2.27,-20.15 0,-3.72 1.93,-31.41 2.71,-35.69 a 3.7,3.7 0 0 1 2.27,-0.66 c 0.15,0 0.5,0.11 0.83,0.89 0.61,1.67 0.7,11.94 0.48,24.51 0,0.08 0,0.15 0,0.22 0,0.07 0,0 0,0.07 -0.12,6.75 -0.33,14.15 -0.59,21.22 a 2.0014058,2.0014058 0 1 0 4,0.15 c 0.16,-4.39 0.46,-13.13 0.61,-22 a 1.77,1.77 0 0 1 0.77,-1.39 5.45,5.45 0 0 1 4.3,-0.21 C 104,61.88 104,63.94 104,64 v 0 c 0,0.15 0.31,15.23 0.25,18.63 a 2,2 0 0 0 2,2 v 0 a 2,2 0 0 0 2,-2 c 0.05,-2.78 -0.13,-12.69 -0.21,-16.9 a 5.9,5.9 0 0 1 4.42,1.69 c 0.7,0.81 1.46,4 1.74,6.4 0,0 0,0 0,0.07 0,0.07 0,0.05 0,0.08 a 33.72,33.72 0 0 1 0.07,10.45 2,2 0 0 0 1.62,2.32 2,2 0 0 0 0.35,0 2,2 0 0 0 2,-1.65 35.9,35.9 0 0 0 0.24,-9.45 6.1,6.1 0 0 1 1.78,0.66 c 1.59,0.9 2.66,2.56 2.65,7.75 0,1.89 0.2,4.7 0.43,8 0.42,6 1,13.48 0.38,18 -0.86,6.72 -4.42,15 -4.45,15.13 a 2,2 0 1 0 3.67,1.58 c 0.16,-0.36 3.81,-8.91 4.74,-16.2 0.62,-4.86 0.08,-12.56 -0.36,-18.74 -0.22,-3.18 -0.42,-5.92 -0.42,-7.67 0,-4.25 -0.55,-8.9 -4.68,-11.24 a 10.18,10.18 0 0 0 -4.31,-1.29 c -0.35,-2.07 -1.09,-5.2 -2.44,-6.75 A 10,10 0 0 0 107.65,61.81 6.53,6.53 0 0 0 104,57.56 10.08,10.08 0 0 0 97.48,57.42 C 97.54,47.75 97.38,39 96.58,37.13 Z"
         id="path4" />
      <path
         inkscape:connector-curvature="0"
         d="M 73.6,45.71 A 24.68,24.68 0 1 0 48.92,70.39 24.71,24.71 0 0 0 73.6,45.71 Z M 48.92,66.39 A 20.68,20.68 0 1 1 69.6,45.71 20.7,20.7 0 0 1 48.92,66.39 Z"
         id="path6" />
      <path
         inkscape:connector-curvature="0"
         d="M 1.93,54.69 12.46,58 A 38.7,38.7 0 0 0 20,71.1 l -2.36,10.79 a 2,2 0 0 0 0.7,2 48.81,48.81 0 0 0 12.79,7.39 2,2 0 0 0 2.08,-0.39 l 8.15,-7.46 a 38.54,38.54 0 0 0 7.55,0.75 31.09,31.09 0 0 0 7.68,-0.78 2.0001312,2.0001312 0 0 0 -0.89,-3.9 26.86,26.86 0 0 1 -6.79,0.68 34.64,34.64 0 0 1 -7.7,-0.87 2,2 0 0 0 -1.79,0.47 l -8,7.31 A 44.75,44.75 0 0 1 21.8,81.53 L 24.16,71 A 2,2 0 0 0 23.67,69.21 34.63,34.63 0 0 1 16,55.84 2,2 0 0 0 14.69,54.52 L 4.34,51.26 a 45.37,45.37 0 0 1 0,-11.11 L 14.65,36.89 A 2,2 0 0 0 16,35.57 34.63,34.63 0 0 1 23.71,22.24 2,2 0 0 0 24.2,20.45 L 21.82,9.89 a 44.79,44.79 0 0 1 9.62,-5.56 l 8,7.3 a 2,2 0 0 0 1.79,0.47 34.48,34.48 0 0 1 15.39,0 2,2 0 0 0 1.79,-0.47 l 8,-7.3 A 44.78,44.78 0 0 1 76,9.89 l -2.32,10.57 a 2,2 0 0 0 0.49,1.79 34.33,34.33 0 0 1 7,11.24 2.00025,2.00025 0 1 0 3.74,-1.42 38.25,38.25 0 0 0 -7.09,-11.75 l 2.37,-10.8 a 2,2 0 0 0 -0.7,-2 A 48.83,48.83 0 0 0 66.7,0.14 2,2 0 0 0 64.62,0.53 L 56.47,8 A 38.4,38.4 0 0 0 41.37,8 L 33.21,0.52 a 2,2 0 0 0 -2.08,-0.38 48.83,48.83 0 0 0 -12.78,7.39 2,2 0 0 0 -0.7,2 L 20,20.31 a 38.7,38.7 0 0 0 -7.57,13.08 l -10.5,3.33 a 2,2 0 0 0 -1.38,1.61 49.38,49.38 0 0 0 0,14.76 2,2 0 0 0 1.38,1.6 z"
         id="path8" />
      <path
         inkscape:connector-curvature="0"
         d="m 77.15,71.83 a 14.75,14.75 0 0 0 3.62,-5.72 2,2 0 0 0 -3.82,-1.18 11.12,11.12 0 0 1 -2.76,4.22 v 0 a 2,2 0 0 0 1.49,3.32 2,2 0 0 0 1.47,-0.64 z"
         id="path10" />
    </g>
  </g>
  <g
     transform="translate(-435.72909,-41.326884)"
     id="g2444">
    <rect
       ry="12.62136"
       rx="13.3"
       y="157.96487"
       x="819.38928"
       height="27.184467"
       width="32.038868"
       id="rect2432"
       style="opacity:1;fill:#d7e3f4;fill-opacity:1;stroke:#4d4d4d;stroke-width:1.13699996;stroke-miterlimit:4;stroke-dasharray:none;stroke-dashoffset:0;stroke-opacity:1" />
    <g
       id="g2442"
       transform="matrix(0.15618233,0,0,0.15618233,824.71461,161.10638)">
      <path
         id="path2434"
         d="m 96.58,37.13 a 5.08,5.08 0 0 0 -3.76,-3.29 7.72,7.72 0 0 0 -6.19,2 c -0.67,0.66 -1.07,1.07 -2.38,18.88 -0.61,8.3 -1.19,17.73 -1.19,19.41 0,1.3 -0.48,5.66 -1,10.11 -0.11,-0.26 -0.22,-0.53 -0.33,-0.84 -1.57,-4.31 -5.2,-8 -10.24,-10.35 -3.36,-1.58 -6.64,-1.46 -8.77,0.34 A 5.21,5.21 0 0 0 61,78.77 c 0.51,1.85 1.82,3.68 3.34,5.81 a 36.57,36.57 0 0 1 3.66,5.76 43.78,43.78 0 0 1 2.21,6.51 41.66,41.66 0 0 0 2.7,7.59 c 0.54,1.05 1.12,2.17 1.72,3.31 a 101.65,101.65 0 0 1 5,10.35 c 1.74,4.69 8.91,9.06 9.72,9.54 a 2,2 0 0 0 2,-3.44 c -2.6,-1.55 -7.08,-5 -8,-7.5 a 102.54,102.54 0 0 0 -5.16,-10.81 c -0.59,-1.13 -1.17,-2.23 -1.7,-3.27 A 38.06,38.06 0 0 1 74,95.76 a 47.45,47.45 0 0 0 -2.43,-7.1 40.16,40.16 0 0 0 -4,-6.41 18.76,18.76 0 0 1 -2.74,-4.54 1.2,1.2 0 0 1 0.41,-1.29 c 0.69,-0.59 2.24,-0.83 4.49,0.22 5.49,2.58 7.48,6.18 8.18,8.1 a 13.64,13.64 0 0 0 3.34,5.43 c -0.18,1.4 -0.34,2.64 -0.46,3.56 A 2,2 0 0 0 82.55,96 h 0.27 a 2,2 0 0 0 2,-1.74 c 0.23,-1.74 2.27,-17.09 2.27,-20.15 0,-3.72 1.93,-31.41 2.71,-35.69 a 3.7,3.7 0 0 1 2.27,-0.66 c 0.15,0 0.5,0.11 0.83,0.89 0.61,1.67 0.7,11.94 0.48,24.51 0,0.08 0,0.15 0,0.22 0,0.07 0,0 0,0.07 -0.12,6.75 -0.33,14.15 -0.59,21.22 a 2.0014058,2.0014058 0 1 0 4,0.15 c 0.16,-4.39 0.46,-13.13 0.61,-22 a 1.77,1.77 0 0 1 0.77,-1.39 5.45,5.45 0 0 1 4.3,-0.21 C 104,61.88 104,63.94 104,64 v 0 c 0,0.15 0.31,15.23 0.25,18.63 a 2,2 0 0 0 2,2 v 0 a 2,2 0 0 0 2,-2 c 0.05,-2.78 -0.13,-12.69 -0.21,-16.9 a 5.9,5.9 0 0 1 4.42,1.69 c 0.7,0.81 1.46,4 1.74,6.4 0,0 0,0 0,0.07 0,0.07 0,0.05 0,0.08 a 33.72,33.72 0 0 1 0.07,10.45 2,2 0 0 0 1.62,2.32 2,2 0 0 0 0.35,0 2,2 0 0 0 2,-1.65 35.9,35.9 0 0 0 0.24,-9.45 6.1,6.1 0 0 1 1.78,0.66 c 1.59,0.9 2.66,2.56 2.65,7.75 0,1.89 0.2,4.7 0.43,8 0.42,6 1,13.48 0.38,18 -0.86,6.72 -4.42,15 -4.45,15.13 a 2,2 0 1 0 3.67,1.58 c 0.16,-0.36 3.81,-8.91 4.74,-16.2 0.62,-4.86 0.08,-12.56 -0.36,-18.74 -0.22,-3.18 -0.42,-5.92 -0.42,-7.67 0,-4.25 -0.55,-8.9 -4.68,-11.24 a 10.18,10.18 0 0 0 -4.31,-1.29 c -0.35,-2.07 -1.09,-5.2 -2.44,-6.75 A 10,10 0 0 0 107.65,61.81 6.53,6.53 0 0 0 104,57.56 10.08,10.08 0 0 0 97.48,57.42 C 97.54,47.75 97.38,39 96.58,37.13 Z"
         inkscape:connector-curvature="0" />
      <path
         id="path2436"
         d="M 73.6,45.71 A 24.68,24.68 0 1 0 48.92,70.39 24.71,24.71 0 0 0 73.6,45.71 Z M 48.92,66.39 A 20.68,20.68 0 1 1 69.6,45.71 20.7,20.7 0 0 1 48.92,66.39 Z"
         inkscape:connector-curvature="0" />
      <path
         id="path2438"
         d="M 1.93,54.69 12.46,58 A 38.7,38.7 0 0 0 20,71.1 l -2.36,10.79 a 2,2 0 0 0 0.7,2 48.81,48.81 0 0 0 12.79,7.39 2,2 0 0 0 2.08,-0.39 l 8.15,-7.46 a 38.54,38.54 0 0 0 7.55,0.75 31.09,31.09 0 0 0 7.68,-0.78 2.0001312,2.0001312 0 0 0 -0.89,-3.9 26.86,26.86 0 0 1 -6.79,0.68 34.64,34.64 0 0 1 -7.7,-0.87 2,2 0 0 0 -1.79,0.47 l -8,7.31 A 44.75,44.75 0 0 1 21.8,81.53 L 24.16,71 A 2,2 0 0 0 23.67,69.21 34.63,34.63 0 0 1 16,55.84 2,2 0 0 0 14.69,54.52 L 4.34,51.26 a 45.37,45.37 0 0 1 0,-11.11 L 14.65,36.89 A 2,2 0 0 0 16,35.57 34.63,34.63 0 0 1 23.71,22.24 2,2 0 0 0 24.2,20.45 L 21.82,9.89 a 44.79,44.79 0 0 1 9.62,-5.56 l 8,7.3 a 2,2 0 0 0 1.79,0.47 34.48,34.48 0 0 1 15.39,0 2,2 0 0 0 1.79,-0.47 l 8,-7.3 A 44.78,44.78 0 0 1 76,9.89 l -2.32,10.57 a 2,2 0 0 0 0.49,1.79 34.33,34.33 0 0 1 7,11.24 2.00025,2.00025 0 1 0 3.74,-1.42 38.25,38.25 0 0 0 -7.09,-11.75 l 2.37,-10.8 a 2,2 0 0 0 -0.7,-2 A 48.83,48.83 0 0 0 66.7,0.14 2,2 0 0 0 64.62,0.53 L 56.47,8 A 38.4,38.4 0 0 0 41.37,8 L 33.21,0.52 a 2,2 0 0 0 -2.08,-0.38 48.83,48.83 0 0 0 -12.78,7.39 2,2 0 0 0 -0.7,2 L 20,20.31 a 38.7,38.7 0 0 0 -7.57,13.08 l -10.5,3.33 a 2,2 0 0 0 -1.38,1.61 49.38,49.38 0 0 0 0,14.76 2,2 0 0 0 1.38,1.6 z"
         inkscape:connector-curvature="0" />
      <path
         id="path2440"
         d="m 77.15,71.83 a 14.75,14.75 0 0 0 3.62,-5.72 2,2 0 0 0 -3.82,-1.18 11.12,11.12 0 0 1 -2.76,4.22 v 0 a 2,2 0 0 0 1.49,3.32 2,2 0 0 0 1.47,-0.64 z"
         inkscape:connector-curvature="0" />
    </g>
  </g>
  <rect
     id="rect2446"
     style="display:inline;fill:#e0e0e0;stroke:#707070;stroke-width:1.33000004px"
     ry="13.3"
     rx="13.3"
     border="1"
     height="39.900002"
     width="93.099998"
     y="61.611095"
     x="506.67706" />
  <text
     xml:space="preserve"
     style="font-style:normal;font-variant:normal;font-weight:bold;font-stretch:normal;font-size:16px;line-height:1.25;font-family:Arial;-inkscape-font-specification:'Arial Bold';letter-spacing:0px;word-spacing:0px;display:inline;fill:#000000;fill-opacity:1;stroke:none;stroke-width:1"
     x="515.65765"
     y="87.464798"
     id="text2450"><tspan
       sodipodi:role="line"
       id="tspan2448"
       x="515.65765"
       y="87.464798"
       style="stroke-width:1">beamstab</tspan></text>
  <path
     style="fill:none;stroke:#ff0000;stroke-width:1;stroke-linecap:butt;stroke-linejoin:miter;stroke-opacity:1;stroke-miterlimit:4;stroke-dasharray:2, 1;stroke-dashoffset:0"
     d="M 553.42087,101.76918 V 317.3877 h -53.90463"
     id="path2452"
     inkscape:connector-curvature="0" />
  <g
     id="g2466"
     transform="translate(-280.30407,-42.225295)">
    <rect
       style="opacity:1;fill:#d7e3f4;fill-opacity:1;stroke:#4d4d4d;stroke-width:1.13699996;stroke-miterlimit:4;stroke-dasharray:none;stroke-dashoffset:0;stroke-opacity:1"
       id="rect2454"
       width="32.038868"
       height="27.184467"
       x="819.38928"
       y="157.96487"
       rx="13.3"
       ry="12.62136" />
    <g
       transform="matrix(0.15618233,0,0,0.15618233,824.71461,161.10638)"
       id="g2464">
      <path
         inkscape:connector-curvature="0"
         d="m 96.58,37.13 a 5.08,5.08 0 0 0 -3.76,-3.29 7.72,7.72 0 0 0 -6.19,2 c -0.67,0.66 -1.07,1.07 -2.38,18.88 -0.61,8.3 -1.19,17.73 -1.19,19.41 0,1.3 -0.48,5.66 -1,10.11 -0.11,-0.26 -0.22,-0.53 -0.33,-0.84 -1.57,-4.31 -5.2,-8 -10.24,-10.35 -3.36,-1.58 -6.64,-1.46 -8.77,0.34 A 5.21,5.21 0 0 0 61,78.77 c 0.51,1.85 1.82,3.68 3.34,5.81 a 36.57,36.57 0 0 1 3.66,5.76 43.78,43.78 0 0 1 2.21,6.51 41.66,41.66 0 0 0 2.7,7.59 c 0.54,1.05 1.12,2.17 1.72,3.31 a 101.65,101.65 0 0 1 5,10.35 c 1.74,4.69 8.91,9.06 9.72,9.54 a 2,2 0 0 0 2,-3.44 c -2.6,-1.55 -7.08,-5 -8,-7.5 a 102.54,102.54 0 0 0 -5.16,-10.81 c -0.59,-1.13 -1.17,-2.23 -1.7,-3.27 A 38.06,38.06 0 0 1 74,95.76 a 47.45,47.45 0 0 0 -2.43,-7.1 40.16,40.16 0 0 0 -4,-6.41 18.76,18.76 0 0 1 -2.74,-4.54 1.2,1.2 0 0 1 0.41,-1.29 c 0.69,-0.59 2.24,-0.83 4.49,0.22 5.49,2.58 7.48,6.18 8.18,8.1 a 13.64,13.64 0 0 0 3.34,5.43 c -0.18,1.4 -0.34,2.64 -0.46,3.56 A 2,2 0 0 0 82.55,96 h 0.27 a 2,2 0 0 0 2,-1.74 c 0.23,-1.74 2.27,-17.09 2.27,-20.15 0,-3.72 1.93,-31.41 2.71,-35.69 a 3.7,3.7 0 0 1 2.27,-0.66 c 0.15,0 0.5,0.11 0.83,0.89 0.61,1.67 0.7,11.94 0.48,24.51 0,0.08 0,0.15 0,0.22 0,0.07 0,0 0,0.07 -0.12,6.75 -0.33,14.15 -0.59,21.22 a 2.0014058,2.0014058 0 1 0 4,0.15 c 0.16,-4.39 0.46,-13.13 0.61,-22 a 1.77,1.77 0 0 1 0.77,-1.39 5.45,5.45 0 0 1 4.3,-0.21 C 104,61.88 104,63.94 104,64 v 0 c 0,0.15 0.31,15.23 0.25,18.63 a 2,2 0 0 0 2,2 v 0 a 2,2 0 0 0 2,-2 c 0.05,-2.78 -0.13,-12.69 -0.21,-16.9 a 5.9,5.9 0 0 1 4.42,1.69 c 0.7,0.81 1.46,4 1.74,6.4 0,0 0,0 0,0.07 0,0.07 0,0.05 0,0.08 a 33.72,33.72 0 0 1 0.07,10.45 2,2 0 0 0 1.62,2.32 2,2 0 0 0 0.35,0 2,2 0 0 0 2,-1.65 35.9,35.9 0 0 0 0.24,-9.45 6.1,6.1 0 0 1 1.78,0.66 c 1.59,0.9 2.66,2.56 2.65,7.75 0,1.89 0.2,4.7 0.43,8 0.42,6 1,13.48 0.38,18 -0.86,6.72 -4.42,15 -4.45,15.13 a 2,2 0 1 0 3.67,1.58 c 0.16,-0.36 3.81,-8.91 4.74,-16.2 0.62,-4.86 0.08,-12.56 -0.36,-18.74 -0.22,-3.18 -0.42,-5.92 -0.42,-7.67 0,-4.25 -0.55,-8.9 -4.68,-11.24 a 10.18,10.18 0 0 0 -4.31,-1.29 c -0.35,-2.07 -1.09,-5.2 -2.44,-6.75 A 10,10 0 0 0 107.65,61.81 6.53,6.53 0 0 0 104,57.56 10.08,10.08 0 0 0 97.48,57.42 C 97.54,47.75 97.38,39 96.58,37.13 Z"
         id="path2456" />
      <path
         inkscape:connector-curvature="0"
         d="M 73.6,45.71 A 24.68,24.68 0 1 0 48.92,70.39 24.71,24.71 0 0 0 73.6,45.71 Z M 48.92,66.39 A 20.68,20.68 0 1 1 69.6,45.71 20.7,20.7 0 0 1 48.92,66.39 Z"
         id="path2458" />
      <path
         inkscape:connector-curvature="0"
         d="M 1.93,54.69 12.46,58 A 38.7,38.7 0 0 0 20,71.1 l -2.36,10.79 a 2,2 0 0 0 0.7,2 48.81,48.81 0 0 0 12.79,7.39 2,2 0 0 0 2.08,-0.39 l 8.15,-7.46 a 38.54,38.54 0 0 0 7.55,0.75 31.09,31.09 0 0 0 7.68,-0.78 2.0001312,2.0001312 0 0 0 -0.89,-3.9 26.86,26.86 0 0 1 -6.79,0.68 34.64,34.64 0 0 1 -7.7,-0.87 2,2 0 0 0 -1.79,0.47 l -8,7.31 A 44.75,44.75 0 0 1 21.8,81.53 L 24.16,71 A 2,2 0 0 0 23.67,69.21 34.63,34.63 0 0 1 16,55.84 2,2 0 0 0 14.69,54.52 L 4.34,51.26 a 45.37,45.37 0 0 1 0,-11.11 L 14.65,36.89 A 2,2 0 0 0 16,35.57 34.63,34.63 0 0 1 23.71,22.24 2,2 0 0 0 24.2,20.45 L 21.82,9.89 a 44.79,44.79 0 0 1 9.62,-5.56 l 8,7.3 a 2,2 0 0 0 1.79,0.47 34.48,34.48 0 0 1 15.39,0 2,2 0 0 0 1.79,-0.47 l 8,-7.3 A 44.78,44.78 0 0 1 76,9.89 l -2.32,10.57 a 2,2 0 0 0 0.49,1.79 34.33,34.33 0 0 1 7,11.24 2.00025,2.00025 0 1 0 3.74,-1.42 38.25,38.25 0 0 0 -7.09,-11.75 l 2.37,-10.8 a 2,2 0 0 0 -0.7,-2 A 48.83,48.83 0 0 0 66.7,0.14 2,2 0 0 0 64.62,0.53 L 56.47,8 A 38.4,38.4 0 0 0 41.37,8 L 33.21,0.52 a 2,2 0 0 0 -2.08,-0.38 48.83,48.83 0 0 0 -12.78,7.39 2,2 0 0 0 -0.7,2 L 20,20.31 a 38.7,38.7 0 0 0 -7.57,13.08 l -10.5,3.33 a 2,2 0 0 0 -1.38,1.61 49.38,49.38 0 0 0 0,14.76 2,2 0 0 0 1.38,1.6 z"
         id="path2460" />
      <path
         inkscape:connector-curvature="0"
         d="m 77.15,71.83 a 14.75,14.75 0 0 0 3.62,-5.72 2,2 0 0 0 -3.82,-1.18 11.12,11.12 0 0 1 -2.76,4.22 v 0 a 2,2 0 0 0 1.49,3.32 2,2 0 0 0 1.47,-0.64 z"
         id="path2462" />
    </g>
  </g>
</svg>
