<?xml version="1.0" encoding="UTF-8" standalone="no"?>
<svg
   xmlns:dc="http://purl.org/dc/elements/1.1/"
   xmlns:cc="http://creativecommons.org/ns#"
   xmlns:rdf="http://www.w3.org/1999/02/22-rdf-syntax-ns#"
   xmlns:svg="http://www.w3.org/2000/svg"
   xmlns="http://www.w3.org/2000/svg"
   xmlns:sodipodi="http://sodipodi.sourceforge.net/DTD/sodipodi-0.dtd"
   xmlns:inkscape="http://www.inkscape.org/namespaces/inkscape"
   version="1.1"
   x="0px"
   y="0px"
   viewBox="0 0 100 125"
   style="enable-background:new 0 0 100 100;"
   xml:space="preserve"
   id="svg8"
   sodipodi:docname="icon_return.svg"
   inkscape:version="0.92.2 5c3e80d, 2017-08-06"><metadata
     id="metadata14"><rdf:RDF><cc:Work
         rdf:about=""><dc:format>image/svg+xml</dc:format><dc:type
           rdf:resource="http://purl.org/dc/dcmitype/StillImage" /><dc:title></dc:title></cc:Work></rdf:RDF></metadata><defs
     id="defs12" /><sodipodi:namedview
     pagecolor="#ffffff"
     bordercolor="#666666"
     borderopacity="1"
     objecttolerance="10"
     gridtolerance="10"
     guidetolerance="10"
     inkscape:pageopacity="0"
     inkscape:pageshadow="2"
     inkscape:window-width="828"
     inkscape:window-height="480"
     id="namedview10"
     showgrid="false"
     inkscape:zoom="1.888"
     inkscape:cx="90.519068"
     inkscape:cy="62.5"
     inkscape:window-x="220"
     inkscape:window-y="27"
     inkscape:window-maximized="0"
     inkscape:current-layer="svg8" /><path
     d="m 6.304661,34.874576 10,10 c 0.4,0.4 0.9,0.6 1.4,0.6 0.5,0 1,-0.2 1.4,-0.6 0.8,-0.8 0.8,-2 0,-2.8 l -6.6,-6.6 h 51.2 c 15.4,0 28,12.6 28,28 0,15.4 -12.6,28 -28,28 h -14 c -1.1,0 -2,0.9 -2,2 0,1.1 0.9,2 2,2 h 14 c 17.6,0 32,-14.4 32,-32 0,-17.6 -14.4,-32 -32,-32 h -51.2 l 6.6,-6.6 c 0.8,-0.8 0.8,-2 0,-2.8 -0.8,-0.8 -2,-0.8 -2.8,0 l -10,10 c -0.1,0.1 -0.2,0.2 -0.3,0.3 0,0 -0.1,0.1 -0.1,0.2 0,0.1 -0.1,0.1 -0.1,0.2 0,0.1 0,0.1 -0.1,0.2 0,0.1 0,0.1 -0.1,0.2 -0.1,0.3 -0.1,0.5 0,0.8 0,0.1 0,0.1 0.1,0.2 0,0.1 0,0.1 0.1,0.2 0,0.1 0.1,0.1 0.1,0.2 0,0.1 0.1,0.1 0.1,0.2 0.1,-0.1 0.2,0 0.3,0.1 z m 1.4,56.6 h 4 c 1.1,0 2,0.9 2,2 0,1.1 -0.9,2 -2,2 h -4 c -1.1,0 -2,-0.9 -2,-2 0,-1.1 0.9,-2 2,-2 z m 14,0 h 4 c 1.1,0 2,0.9 2,2 0,1.1 -0.9,2 -2,2 h -4 c -1.1,0 -2,-0.9 -2,-2 0,-1.1 0.9,-2 2,-2 z m 14,0 h 4 c 1.1,0 2,0.9 2,2 0,1.1 -0.9,2 -2,2 h -4 c -1.1,0 -2,-0.9 -2,-2 0,-1.1 0.9,-2 2,-2 z"
     id="path2"
     inkscape:connector-curvature="0"
     style="fill:#2c5aa0" /></svg>