<?xml version="1.0" encoding="UTF-8" standalone="no"?>
<svg
   xmlns:dc="http://purl.org/dc/elements/1.1/"
   xmlns:cc="http://creativecommons.org/ns#"
   xmlns:rdf="http://www.w3.org/1999/02/22-rdf-syntax-ns#"
   xmlns:svg="http://www.w3.org/2000/svg"
   xmlns="http://www.w3.org/2000/svg"
   xmlns:sodipodi="http://sodipodi.sourceforge.net/DTD/sodipodi-0.dtd"
   xmlns:inkscape="http://www.inkscape.org/namespaces/inkscape"
   version="1.1"
   x="0px"
   y="0px"
   viewBox="0 0 128 128"
   xml:space="preserve"
   id="svg44"
   sodipodi:docname="noun_automated testing_2715042.svg"
   width="128"
   height="128"
   inkscape:version="0.92.2 5c3e80d, 2017-08-06"><metadata
     id="metadata50"><rdf:RDF><cc:Work
         rdf:about=""><dc:format>image/svg+xml</dc:format><dc:type
           rdf:resource="http://purl.org/dc/dcmitype/StillImage" /><dc:title></dc:title></cc:Work></rdf:RDF></metadata><defs
     id="defs48" /><sodipodi:namedview
     pagecolor="#ffffff"
     bordercolor="#666666"
     borderopacity="1"
     objecttolerance="10"
     gridtolerance="10"
     guidetolerance="10"
     inkscape:pageopacity="0"
     inkscape:pageshadow="2"
     inkscape:window-width="717"
     inkscape:window-height="480"
     id="namedview46"
     showgrid="false"
     inkscape:zoom="1.475"
     inkscape:cx="64"
     inkscape:cy="80"
     inkscape:window-x="0"
     inkscape:window-y="0"
     inkscape:window-maximized="0"
     inkscape:current-layer="svg44" /><g
     id="g38"
     transform="translate(0,1.220339)"><g
       id="g36"><path
         d="m 97.148,121 c -0.151,0 -0.304,-0.017 -0.453,-0.052 -0.537,-0.125 -0.998,-0.465 -1.275,-0.942 C 88.925,108.847 76.886,101.914 64,101.914 c -12.886,0 -24.925,6.933 -31.42,18.092 -0.277,0.477 -0.738,0.817 -1.275,0.942 -0.535,0.125 -1.101,0.023 -1.56,-0.282 C 12.372,109.128 2,89.812 2,68.996 2,34.811 29.813,7 64,7 c 34.187,0 62,27.811 62,61.996 0,20.816 -10.372,40.132 -27.745,51.67 -0.331,0.22 -0.716,0.334 -1.107,0.334 z M 64,97.914 c 13.585,0 26.321,6.939 33.743,18.247 C 112.971,105.258 122,87.779 122,68.996 122,37.017 95.981,11 64,11 32.019,11 6,37.017 6,68.996 6,87.78 15.029,105.259 30.257,116.161 37.679,104.853 50.415,97.914 64,97.914 Z"
         id="path2"
         inkscape:connector-curvature="0" /><g
         id="g32"><g
           id="g6"><path
             d="m 64,23.534 c -1.104,0 -2,-0.896 -2,-2 V 9.832 c 0,-1.104 0.896,-2 2,-2 1.104,0 2,0.896 2,2 v 11.702 c 0,1.104 -0.896,2 -2,2 z"
             id="path4"
             inkscape:connector-curvature="0" /></g><g
           id="g12"><line
             x1="22.162001"
             y1="27.16"
             x2="30.437"
             y2="35.435001"
             id="line8" /><path
             d="m 30.437,37.435 c -0.512,0 -1.023,-0.195 -1.414,-0.586 l -8.275,-8.275 c -0.781,-0.781 -0.781,-2.047 0,-2.828 0.781,-0.781 2.047,-0.781 2.828,0 l 8.275,8.275 c 0.781,0.781 0.781,2.047 0,2.828 -0.391,0.391 -0.903,0.586 -1.414,0.586 z"
             id="path10"
             inkscape:connector-curvature="0" /></g><g
           id="g18"><line
             x1="4.8319998"
             y1="68.996002"
             x2="16.535"
             y2="68.996002"
             id="line14" /><path
             d="M 16.534,70.996 H 4.831 c -1.104,0 -2,-0.896 -2,-2 0,-1.104 0.896,-2 2,-2 h 11.703 c 1.104,0 2,0.896 2,2 0,1.104 -0.895,2 -2,2 z"
             id="path16"
             inkscape:connector-curvature="0" /></g><g
           id="g24"><line
             x1="123.168"
             y1="68.996002"
             x2="111.465"
             y2="68.996002"
             id="line20" /><path
             d="m 123.169,70.996 h -11.703 c -1.104,0 -2,-0.896 -2,-2 0,-1.104 0.896,-2 2,-2 h 11.703 c 1.104,0 2,0.896 2,2 0,1.104 -0.896,2 -2,2 z"
             id="path22"
             inkscape:connector-curvature="0" /></g><g
           id="g30"><line
             x1="105.838"
             y1="27.16"
             x2="97.563004"
             y2="35.435001"
             id="line26" /><path
             d="m 97.563,37.435 c -0.512,0 -1.023,-0.195 -1.414,-0.586 -0.781,-0.781 -0.781,-2.047 0,-2.828 l 8.275,-8.275 c 0.781,-0.781 2.047,-0.781 2.828,0 0.781,0.781 0.781,2.047 0,2.828 l -8.275,8.275 c -0.39,0.391 -0.902,0.586 -1.414,0.586 z"
             id="path28"
             inkscape:connector-curvature="0" /></g></g><path
         d="m 61.935,80.528 c -0.119,0 -0.238,-0.001 -0.357,-0.005 -5.999,-0.185 -10.914,-5.232 -10.956,-11.253 -0.03,-4.249 2.28,-8.123 6.029,-10.111 0.007,-0.004 0.014,-0.007 0.021,-0.011 L 86.766,43.64 c 0.813,-0.456 1.833,-0.289 2.458,0.4 0.626,0.689 0.693,1.719 0.163,2.484 l -7.581,10.935 c -3.758,5.421 -6.864,11.317 -9.868,17.019 -1.98,3.756 -5.79,6.05 -10.003,6.05 z m -3.421,-17.83 c -2.421,1.288 -3.912,3.794 -3.893,6.543 0.027,3.897 3.202,7.164 7.079,7.283 2.852,0.091 5.382,-1.413 6.698,-3.911 3.06,-5.808 6.224,-11.813 10.12,-17.434 l 2.993,-4.317 z"
         id="path34"
         inkscape:connector-curvature="0" /></g></g></svg>